<?xml version="1.0" encoding="utf-8"?>
<!-- Generator: Adobe Illustrator 15.0.0, SVG Export Plug-In . SVG Version: 6.00 Build 0)  -->
<!DOCTYPE svg PUBLIC "-//W3C//DTD SVG 1.1//EN" "http://www.w3.org/Graphics/SVG/1.1/DTD/svg11.dtd">
<svg version="1.1" id="Warstwa_1" xmlns="http://www.w3.org/2000/svg" xmlns:xlink="http://www.w3.org/1999/xlink" x="0px" y="0px"
	 width="800px" height="600px" viewBox="0 0 800 600" enable-background="new 0 0 800 600" xml:space="preserve">
<g opacity="0.5">
	<path fill="#6E8703" d="M662.125,388.092c-2.31,0.432-4.623,0.65-6.959,0.729c-2.33,0.072-4.676-0.022-6.998-0.358
		c-2.321-0.338-4.632-0.919-6.806-1.892c-2.168-0.965-4.199-2.358-5.772-4.202l-0.002-0.002c-0.228-0.267-0.196-0.664,0.069-0.892
		c0.267-0.228,0.664-0.195,0.892,0.07c0.002,0.002,0.006,0.006,0.008,0.008c1.402,1.707,3.25,3.034,5.279,3.984
		c2.034,0.957,4.241,1.559,6.485,1.928c2.246,0.367,4.537,0.502,6.826,0.477c2.285-0.034,3.951-0.086,6.195-0.461l0.479-0.059
		c0.203-0.035,0.568,0.033,0.604,0.238C662.462,387.861,662.327,388.055,662.125,388.092z"/>
	<g>
		
			<linearGradient id="SVGID_1_" gradientUnits="userSpaceOnUse" x1="689.6165" y1="1049.5977" x2="711.5137" y2="1041.812" gradientTransform="matrix(0.5517 0.8341 0.8341 -0.5517 -559.5588 380.4351)">
			<stop  offset="0.0061" style="stop-color:#7FA401"/>
			<stop  offset="1" style="stop-color:#B6DF00"/>
		</linearGradient>
		<path fill="url(#SVGID_1_)" d="M660.452,388.4c0,0,9.593-2.551,17.534,9.983c8.249,13.019,10.411,6.918,8.44,4.527
			c0,0,7.938,6.416,8.989,2.416c0,0,5.977,1.688,7.246-1.099c1.271-2.783-0.612-4.455-0.612-4.455s2.576-3.455-4.384-7.215
			c0,0,9.693,6.424,11.776,2.519c0,0,7.557,0.836,8.648-2.804c1.093-3.641-4.612-6.09-4.612-6.09s5.08,0.918,5.092-2.006
			c0,0,4.727-0.793,3.435-4.217c0,0,5.225-1.51,3.522-4.081c0,0,5.414-4.165,6.648-5.629c1.234-1.466,2.356-1.56-1.799-2.278
			c-3.808-0.658-5.859-1.215-9.289-0.371c0,0-3.877-3.756-8.295-1.223c0,0-4.422-6.636-13.898,1.188c0,0,3.46-6.825,0.021-9.088
			c-2.466-1.619-6.215,1.389-6.215,1.389s-2.884-2.891-7.386,2.355c0,0-4.971-2.416-9.205,7.646
			c-4.235,10.063-8.754,15.577-15.797,17.967L660.452,388.4z"/>
		
			<linearGradient id="SVGID_2_" gradientUnits="userSpaceOnUse" x1="673.7659" y1="1056.2803" x2="693.1222" y2="1048.1702" gradientTransform="matrix(0.5517 0.8341 0.8341 -0.5517 -559.5588 380.4351)">
			<stop  offset="0.0061" style="stop-color:#7FA401"/>
			<stop  offset="1" style="stop-color:#B6DF00"/>
		</linearGradient>
		<path fill="url(#SVGID_2_)" d="M733.139,368.65c-0.32-0.209-1.137-0.396-2.76-0.676c-3.808-0.66-5.859-1.216-9.289-0.373
			c0,0-3.877-3.754-8.295-1.222c0,0-4.423-6.636-13.898,1.188c0,0,3.46-6.826,0.02-9.088c-2.465-1.621-6.214,1.388-6.214,1.388
			s-2.884-2.892-7.386,2.356c0,0-4.971-2.416-9.205,7.645c-4.236,10.063-8.754,15.578-15.797,17.967
			C694.615,384.42,729.882,370.005,733.139,368.65z"/>
		<path fill="#6E8703" d="M733.383,368.547c-5.83,2.434-11.766,4.611-17.742,6.656c-5.982,2.037-12.021,3.911-18.111,5.598
			c-6.091,1.688-12.236,3.186-18.436,4.439c-6.197,1.254-12.361,2.443-18.657,3.099l-0.149-0.63c6.277-0.6,12.518-1.75,18.714-2.945
			c6.194-1.199,12.345-2.645,18.443-4.275c6.1-1.633,12.148-3.453,18.146-5.438C721.58,373.057,727.532,370.93,733.383,368.547z"/>
	</g>
</g>
<g opacity="0.5">
	<g>
		
			<linearGradient id="SVGID_3_" gradientUnits="userSpaceOnUse" x1="100.6506" y1="1082.9824" x2="108.2418" y2="1082.8243" gradientTransform="matrix(-0.0638 0.998 0.998 0.0638 -712.765 57.6134)">
			<stop  offset="0.0061" style="stop-color:#7FA401"/>
			<stop  offset="1" style="stop-color:#B6DF00"/>
		</linearGradient>
		<path fill="url(#SVGID_3_)" d="M335.396,224.286c0,0,12.729,6.632,23.517,9.855c9.561,2.857,11.567-0.907,11.567-0.907
			s2.705,1.64,6.812-1.15c0,0,2.41,0.622,5.125-1.382c0,0,3.584,0.149,5.5-1.305c0,0-1.414-2.385-5.666-3.061
			c0,0-1.238-2.229-4.351-2.34c0,0-0.985-3.58-6.192-2.962c0,0-0.045-2.937-9.09-2.252
			C353.573,219.47,335.396,224.286,335.396,224.286z"/>
		
			<linearGradient id="SVGID_4_" gradientUnits="userSpaceOnUse" x1="91.6477" y1="1083.0615" x2="100.9786" y2="1082.9825" gradientTransform="matrix(-0.0638 0.998 0.998 0.0638 -712.765 57.6134)">
			<stop  offset="0.0061" style="stop-color:#7FA401"/>
			<stop  offset="1" style="stop-color:#B6DF00"/>
		</linearGradient>
		<path fill="url(#SVGID_4_)" d="M382.249,226.338c0,0-1.238-2.229-4.351-2.34c0,0-0.985-3.58-6.192-2.962
			c0,0-0.045-2.937-9.09-2.252c-9.043,0.687-27.222,5.503-27.222,5.503c13.75,2.534,52.521,5.112,52.521,5.112
			S386.501,227.014,382.249,226.338z"/>
		<path fill="#6E8703" d="M387.915,229.397c-8.781-0.547-17.558-1.173-26.326-1.899c-4.383-0.366-8.766-0.758-13.145-1.21
			c-4.378-0.463-8.753-0.939-13.105-1.692c-0.173-0.03-0.287-0.193-0.258-0.365c0.029-0.172,0.191-0.288,0.365-0.258
			c0,0,0.001,0,0.002,0l0.004,0.001c4.31,0.798,8.68,1.327,13.044,1.842c4.368,0.503,8.743,0.948,13.122,1.367
			C370.374,228.015,379.142,228.745,387.915,229.397z"/>
	</g>
	<g>
		
			<linearGradient id="SVGID_5_" gradientUnits="userSpaceOnUse" x1="79.1218" y1="1055.9473" x2="79.7019" y2="1061.6415" gradientTransform="matrix(-0.0638 0.998 0.998 0.0638 -712.765 57.6134)">
			<stop  offset="0.0061" style="stop-color:#7FA401"/>
			<stop  offset="1" style="stop-color:#B6DF00"/>
		</linearGradient>
		<path fill="url(#SVGID_5_)" d="M335.054,223.885c0,0,4.603-9.828,6.689-18.08c1.852-7.313-1.058-8.71-1.058-8.71
			s1.152-2.097-1.088-5.108c0,0,0.394-1.839-1.209-3.828c0,0-0.002-2.712-1.161-4.112c0,0-1.757,1.146-2.13,4.377
			c0,0-1.645,1.007-1.629,3.363c0,0-2.672,0.86-2.038,4.774c0,0-2.218,0.128-1.409,6.938
			C330.832,210.309,335.054,223.885,335.054,223.885z"/>
		
			<linearGradient id="SVGID_6_" gradientUnits="userSpaceOnUse" x1="79.4387" y1="1049.5635" x2="79.1224" y2="1056.3118" gradientTransform="matrix(-0.0638 0.998 0.998 0.0638 -712.765 57.6134)">
			<stop  offset="0.0061" style="stop-color:#7FA401"/>
			<stop  offset="1" style="stop-color:#B6DF00"/>
		</linearGradient>
		<path fill="url(#SVGID_6_)" d="M335.099,188.425c0,0-1.645,1.007-1.629,3.363c0,0-2.672,0.86-2.038,4.774
			c0,0-2.218,0.128-1.409,6.938c0.811,6.81,5.031,20.386,5.031,20.386c1.474-10.468,2.175-39.838,2.175-39.838
			S335.472,185.193,335.099,188.425z"/>
		<path fill="#6E8703" d="M337.229,184.047c-0.117,6.651-0.298,13.301-0.551,19.95c-0.129,3.324-0.278,6.648-0.473,9.971
			c-0.203,3.322-0.415,6.644-0.839,9.961c-0.021,0.173-0.181,0.296-0.354,0.274c-0.173-0.022-0.295-0.181-0.272-0.354
			c0-0.001,0-0.002,0-0.002l0.001-0.005c0.471-3.275,0.736-6.594,0.99-9.906c0.247-3.314,0.449-6.633,0.632-9.954
			C336.721,197.341,337.004,190.696,337.229,184.047z"/>
	</g>
	<g>
		
			<linearGradient id="SVGID_7_" gradientUnits="userSpaceOnUse" x1="87.5837" y1="1049.1709" x2="86.1606" y2="1052.4918" gradientTransform="matrix(-0.0638 0.998 0.998 0.0638 -712.765 57.6134)">
			<stop  offset="0.0061" style="stop-color:#7FA401"/>
			<stop  offset="1" style="stop-color:#B6DF00"/>
		</linearGradient>
		<path fill="url(#SVGID_7_)" d="M334.917,224.437c0,0-0.729-7.562-2.411-13.278c-1.489-5.066-3.739-4.873-3.739-4.873
			s-0.053-1.673-2.475-2.691c0,0-0.42-1.248-2.092-1.876c0,0-0.97-1.632-2.166-2.063c0,0-0.65,1.316,0.274,3.396
			c0,0-0.631,1.193,0.219,2.606c0,0-1.306,1.471,0.472,3.604c0,0-1.291,0.866,1.623,4.682
			C327.536,217.761,334.917,224.437,334.917,224.437z"/>
		
			<linearGradient id="SVGID_8_" gradientUnits="userSpaceOnUse" x1="89.8459" y1="1045.3682" x2="87.5788" y2="1049.1116" gradientTransform="matrix(-0.0638 0.998 0.998 0.0638 -712.765 57.6134)">
			<stop  offset="0.0061" style="stop-color:#7FA401"/>
			<stop  offset="1" style="stop-color:#B6DF00"/>
		</linearGradient>
		<path fill="url(#SVGID_8_)" d="M322.31,203.053c0,0-0.631,1.193,0.219,2.606c0,0-1.306,1.471,0.472,3.604
			c0,0-1.291,0.866,1.623,4.682c2.914,3.815,10.295,10.492,10.295,10.492c-2.843-6.832-12.883-24.781-12.883-24.781
			S321.384,200.972,322.31,203.053z"/>
		<path fill="#6E8703" d="M322.034,199.656c2.312,4.042,4.588,8.106,6.815,12.195c1.115,2.046,2.216,4.099,3.289,6.167
			c0.918,1.779,1.83,3.558,2.663,5.388c0.005,0.01,0.011,0.021,0.015,0.031c0.024,0.061-0.007,0.441,0.095,0.745l-0.217,0.072
			c-0.121-0.16-0.235-0.253-0.343-0.351c-0.008-0.007-0.009-0.02-0.012-0.028c-0.807-1.903-1.714-3.776-2.623-5.644
			c-1.025-2.088-2.079-4.164-3.146-6.232C326.437,207.863,324.253,203.749,322.034,199.656z"/>
	</g>
	<g>
		
			<linearGradient id="SVGID_9_" gradientUnits="userSpaceOnUse" x1="86.2542" y1="1079.248" x2="92.0529" y2="1084.2561" gradientTransform="matrix(-0.0638 0.998 0.998 0.0638 -712.765 57.6134)">
			<stop  offset="0.0061" style="stop-color:#7FA401"/>
			<stop  offset="1" style="stop-color:#B6DF00"/>
		</linearGradient>
		<path fill="url(#SVGID_9_)" d="M335.071,224.331c0,0,14.273-1.497,25.048-4.764c9.549-2.896,9.146-7.143,9.146-7.143
			s3.16-0.126,5.043-4.719c0,0,2.353-0.812,3.513-3.981c0,0,3.069-1.854,3.864-4.123c0,0-2.496-1.208-6.414,0.574
			c0,0-2.262-1.175-4.92,0.451c0,0-2.799-2.44-6.799,0.949c0,0-1.66-2.424-8.822,3.14
			C347.567,210.28,335.071,224.331,335.071,224.331z"/>
		
			<linearGradient id="SVGID_10_" gradientUnits="userSpaceOnUse" x1="79.4666" y1="1073.6055" x2="86.5314" y2="1079.4575" gradientTransform="matrix(-0.0638 0.998 0.998 0.0638 -712.765 57.6134)">
			<stop  offset="0.0061" style="stop-color:#7FA401"/>
			<stop  offset="1" style="stop-color:#B6DF00"/>
		</linearGradient>
		<path fill="url(#SVGID_10_)" d="M375.271,200.176c0,0-2.262-1.175-4.92,0.451c0,0-2.799-2.44-6.799,0.949
			c0,0-1.66-2.424-8.822,3.14c-7.161,5.565-19.658,19.616-19.658,19.616c12.862-5.477,46.613-24.729,46.613-24.729
			S379.189,198.393,375.271,200.176z"/>
		<path fill="#6E8703" d="M381.685,199.602c-7.625,4.39-15.287,8.712-23,12.948c-3.856,2.115-7.729,4.208-11.629,6.247
			c-3.903,2.03-7.815,4.049-11.86,5.825l-0.248-0.581c4.032-1.713,7.97-3.685,11.893-5.665c3.92-1.991,7.814-4.036,11.695-6.104
			C366.294,208.13,374.009,203.899,381.685,199.602z"/>
	</g>
	<g>
		
			<linearGradient id="SVGID_11_" gradientUnits="userSpaceOnUse" x1="879.4934" y1="1055.6338" x2="880.0734" y2="1061.3273" gradientTransform="matrix(0.0638 -0.998 0.998 0.0638 -776.4876 1054.8792)">
			<stop  offset="0.0061" style="stop-color:#7FA401"/>
			<stop  offset="1" style="stop-color:#B6DF00"/>
		</linearGradient>
		<path fill="url(#SVGID_11_)" d="M334.692,224.596c0,0,3.313,10.334,4.335,18.785c0.905,7.489-2.156,8.504-2.156,8.504
			s0.876,2.227-1.729,4.928c0,0,0.155,1.876-1.686,3.643c0,0-0.349,2.689-1.674,3.93c0,0-1.599-1.359-1.559-4.612
			c0,0-1.502-1.209-1.187-3.543c0,0-2.541-1.192-1.415-4.995c0,0-2.184-0.409-0.515-7.06
			C328.776,237.523,334.692,224.596,334.692,224.596z"/>
		
			<linearGradient id="SVGID_12_" gradientUnits="userSpaceOnUse" x1="879.8069" y1="1049.25" x2="879.4905" y2="1055.9993" gradientTransform="matrix(0.0638 -0.998 0.998 0.0638 -776.4876 1054.8792)">
			<stop  offset="0.0061" style="stop-color:#7FA401"/>
			<stop  offset="1" style="stop-color:#B6DF00"/>
		</linearGradient>
		<path fill="url(#SVGID_12_)" d="M330.223,259.773c0,0-1.502-1.209-1.187-3.543c0,0-2.541-1.192-1.415-4.995
			c0,0-2.184-0.409-0.515-7.06c1.669-6.652,7.584-19.58,7.584-19.58c0.129,10.571-2.91,39.79-2.91,39.79
			S330.183,263.025,330.223,259.773z"/>
		<path fill="#6E8703" d="M331.781,264.386c0.727-6.611,1.396-13.229,1.989-19.856c0.296-3.314,0.57-6.63,0.802-9.95
			c0.221-3.322,0.434-6.643,0.437-9.987c0.001-0.176-0.142-0.317-0.314-0.317c-0.176,0-0.316,0.142-0.318,0.316
			c0,0.001,0,0.002,0,0.003l0.001,0.005c0.049,3.308-0.108,6.634-0.277,9.951c-0.177,3.319-0.398,6.636-0.642,9.953
			C332.968,251.135,332.401,257.764,331.781,264.386z"/>
	</g>
	<g>
		
			<linearGradient id="SVGID_13_" gradientUnits="userSpaceOnUse" x1="887.6653" y1="1048.8301" x2="886.2422" y2="1052.1508" gradientTransform="matrix(0.0638 -0.998 0.998 0.0638 -776.4876 1054.8792)">
			<stop  offset="0.0061" style="stop-color:#7FA401"/>
			<stop  offset="1" style="stop-color:#B6DF00"/>
		</linearGradient>
		<path fill="url(#SVGID_13_)" d="M334.587,224.305c0,0-1.684,7.408-4.08,12.864c-2.122,4.836-4.328,4.356-4.328,4.356
			s-0.266,1.654-2.798,2.354c0,0-0.574,1.185-2.313,1.596c0,0-1.168,1.496-2.41,1.771c0,0-0.478-1.39,0.705-3.334
			c0,0-0.476-1.264,0.547-2.557c0,0-1.105-1.625,0.928-3.515c0,0-1.17-1.025,2.206-4.439
			C326.417,229.988,334.587,224.305,334.587,224.305z"/>
		
			<linearGradient id="SVGID_14_" gradientUnits="userSpaceOnUse" x1="889.925" y1="1045.0215" x2="887.6584" y2="1048.7642" gradientTransform="matrix(0.0638 -0.998 0.998 0.0638 -776.4876 1054.8792)">
			<stop  offset="0.0061" style="stop-color:#7FA401"/>
			<stop  offset="1" style="stop-color:#B6DF00"/>
		</linearGradient>
		<path fill="url(#SVGID_14_)" d="M319.363,243.912c0,0-0.476-1.264,0.547-2.557c0,0-1.105-1.625,0.928-3.515
			c0,0-1.17-1.025,2.206-4.439c3.374-3.414,11.544-9.097,11.544-9.097c-3.688,6.416-15.93,22.942-15.93,22.942
			S318.18,245.856,319.363,243.912z"/>
		<path fill="#6E8703" d="M318.657,247.246c2.807-3.718,5.581-7.457,8.313-11.231c1.363-1.887,2.718-3.782,4.047-5.698
			c1.139-1.65,2.271-3.302,3.332-5.015c0.173-0.278,0.064-0.687,0.232-0.969l-0.012-0.008c-0.112,0.197-0.482,0.215-0.597,0.412
			c-1.051,1.803-2.2,3.563-3.351,5.315c-1.282,1.94-2.592,3.865-3.913,5.781C324.07,239.665,321.38,243.466,318.657,247.246z"/>
	</g>
	<g>
		
			<linearGradient id="SVGID_15_" gradientUnits="userSpaceOnUse" x1="886.6399" y1="1078.915" x2="892.4385" y2="1083.923" gradientTransform="matrix(0.0638 -0.998 0.998 0.0638 -776.4876 1054.8792)">
			<stop  offset="0.0061" style="stop-color:#7FA401"/>
			<stop  offset="1" style="stop-color:#B6DF00"/>
		</linearGradient>
		<path fill="url(#SVGID_15_)" d="M334.765,224.156c0,0,13.968,3.3,24.238,7.913c9.102,4.085,8.162,8.248,8.162,8.248
			s3.119,0.527,4.401,5.322c0,0,2.229,1.105,2.978,4.396c0,0,2.809,2.23,3.309,4.582c0,0-2.629,0.881-6.287-1.385
			c0,0-2.395,0.876-4.821-1.074c0,0-3.088,2.064-6.625-1.807c0,0-1.953,2.193-8.351-4.237
			C345.372,239.683,334.765,224.156,334.765,224.156z"/>
		
			<linearGradient id="SVGID_16_" gradientUnits="userSpaceOnUse" x1="879.8538" y1="1073.2734" x2="886.9174" y2="1079.1246" gradientTransform="matrix(0.0638 -0.998 0.998 0.0638 -776.4876 1054.8792)">
			<stop  offset="0.0061" style="stop-color:#7FA401"/>
			<stop  offset="1" style="stop-color:#B6DF00"/>
		</linearGradient>
		<path fill="url(#SVGID_16_)" d="M371.566,253.23c0,0-2.395,0.876-4.821-1.074c0,0-3.088,2.064-6.625-1.807
			c0,0-1.953,2.193-8.351-4.237c-6.396-6.43-17.004-21.957-17.004-21.957c12.063,7.069,43.088,30.46,43.088,30.46
			S375.224,255.497,371.566,253.23z"/>
		<path fill="#6E8703" d="M377.853,254.616c-7.004-5.325-14.055-10.587-21.166-15.77c-3.555-2.59-7.129-5.157-10.735-7.677
			c-3.616-2.51-7.24-5.009-11.025-7.287l-0.32,0.546c3.782,2.212,7.437,4.669,11.075,7.131c3.636,2.474,7.237,4.997,10.823,7.542
			C363.673,244.199,370.786,249.377,377.853,254.616z"/>
	</g>
	<g>
		
			<linearGradient id="SVGID_17_" gradientUnits="userSpaceOnUse" x1="79.759" y1="1068.8818" x2="83.291" y2="1074.3641" gradientTransform="matrix(-0.0638 0.998 0.998 0.0638 -712.765 57.6134)">
			<stop  offset="0.0061" style="stop-color:#7FA401"/>
			<stop  offset="1" style="stop-color:#B6DF00"/>
		</linearGradient>
		<path fill="url(#SVGID_17_)" d="M334.787,224.641c0,0,10.908-7.029,18.269-14.06c6.525-6.23,4.467-9.493,4.467-9.493
			s2.498-1.392,2.146-5.864c0,0,1.566-1.614,1.209-4.646c0,0,1.721-2.748,1.438-4.903c0,0-2.509,0.043-4.941,3.079
			c0,0-2.305-0.025-3.785,2.371c0,0-3.254-0.828-5.1,3.54c0,0-2.328-1.28-5.838,6.131
			C339.142,208.207,334.787,224.641,334.787,224.641z"/>
		
			<linearGradient id="SVGID_18_" gradientUnits="userSpaceOnUse" x1="76.1809" y1="1061.874" x2="79.8184" y2="1069.0962" gradientTransform="matrix(-0.0638 0.998 0.998 0.0638 -712.765 57.6134)">
			<stop  offset="0.0061" style="stop-color:#7FA401"/>
			<stop  offset="1" style="stop-color:#B6DF00"/>
		</linearGradient>
		<path fill="url(#SVGID_18_)" d="M357.374,188.755c0,0-2.305-0.025-3.785,2.371c0,0-3.254-0.828-5.1,3.54
			c0,0-2.328-1.28-5.839,6.131c-3.51,7.411-7.863,23.845-7.863,23.845c8.146-9.665,27.527-38.966,27.527-38.966
			S359.808,185.719,357.374,188.755z"/>
		<path fill="#6E8703" d="M362.316,185.676c-4.356,6.655-8.772,13.271-13.266,19.838c-2.248,3.281-4.517,6.549-6.828,9.788
			c-2.321,3.233-4.653,6.458-7.19,9.544c-0.111,0.135-0.312,0.155-0.445,0.044c-0.137-0.111-0.154-0.311-0.044-0.446
			c0.001,0,0.001,0,0.001-0.001l0.004-0.004c2.556-3.024,4.932-6.219,7.291-9.415c2.353-3.204,4.663-6.44,6.953-9.69
			C353.368,198.829,357.87,192.271,362.316,185.676z"/>
	</g>
	<g>
		
			<linearGradient id="SVGID_19_" gradientUnits="userSpaceOnUse" x1="880.1438" y1="1068.5596" x2="883.6756" y2="1074.0416" gradientTransform="matrix(0.0638 -0.998 0.998 0.0638 -776.4876 1054.8792)">
			<stop  offset="0.0061" style="stop-color:#7FA401"/>
			<stop  offset="1" style="stop-color:#B6DF00"/>
		</linearGradient>
		<path fill="url(#SVGID_19_)" d="M334.523,223.812c0,0,9.927,8.359,16.332,16.271c5.679,7.01,3.224,9.983,3.224,9.983
			s2.301,1.698,1.381,6.09c0,0,1.35,1.801,0.609,4.761c0,0,1.356,2.945,0.803,5.046c0,0-2.482-0.362-4.51-3.683
			c0,0-2.289-0.268-3.453-2.834c0,0-3.333,0.407-4.608-4.158c0,0-2.471,0.973-5.009-6.826
			C336.751,240.666,334.523,223.812,334.523,223.812z"/>
		
			<linearGradient id="SVGID_20_" gradientUnits="userSpaceOnUse" x1="876.5647" y1="1061.5557" x2="880.2022" y2="1068.778" gradientTransform="matrix(0.0638 -0.998 0.998 0.0638 -776.4876 1054.8792)">
			<stop  offset="0.0061" style="stop-color:#7FA401"/>
			<stop  offset="1" style="stop-color:#B6DF00"/>
		</linearGradient>
		<path fill="url(#SVGID_20_)" d="M352.361,262.281c0,0-2.289-0.268-3.453-2.834c0,0-3.333,0.407-4.608-4.158
			c0,0-2.471,0.973-5.009-6.826c-2.539-7.797-4.769-24.651-4.769-24.651c6.853,10.624,22.349,42.151,22.349,42.151
			S354.388,265.601,352.361,262.281z"/>
		<path fill="#6E8703" d="M356.87,265.963c-3.478-7.155-7.016-14.279-10.636-21.364c-1.811-3.541-3.645-7.072-5.526-10.578
			c-1.8-3.332-3.609-6.659-5.611-9.889c-0.102-0.165-0.438-0.139-0.54-0.302c-0.021-0.033-0.027-0.009,0.001-0.007
			c0.006,0-0.008,0.006-0.014,0.006c-0.002,0-0.016,0.003-0.014,0.005v-0.006c0.098,0.149-0.079,0.455,0.018,0.604
			c2.036,3.188,3.896,6.502,5.744,9.815c1.926,3.479,3.806,6.982,5.664,10.496C349.667,251.778,353.3,258.855,356.87,265.963z"/>
	</g>
	<path fill="#6E8703" d="M335.554,225.002c-1.807-0.291-3.599-0.611-5.392-0.953c-1.792-0.342-3.579-0.708-5.364-1.111
		c-1.783-0.403-3.563-0.839-5.336-1.353c-0.887-0.258-1.771-0.536-2.653-0.858c-0.883-0.33-1.761-0.676-2.65-1.209
		c-0.472-0.281-0.625-0.891-0.343-1.362s0.892-0.624,1.362-0.342c0.01,0.006,0.02,0.011,0.027,0.018l0.013,0.008
		c0.656,0.426,1.462,0.789,2.271,1.118c0.814,0.328,1.655,0.625,2.507,0.903c1.701,0.556,3.438,1.043,5.187,1.499
		c1.748,0.456,3.509,0.876,5.274,1.276c1.766,0.398,3.543,0.776,5.313,1.123l0.004,0.001c0.345,0.066,0.566,0.399,0.5,0.742
		C336.208,224.834,335.888,225.056,335.554,225.002z"/>
</g>
<g opacity="0.5">
	
		<linearGradient id="SVGID_21_" gradientUnits="userSpaceOnUse" x1="456.5286" y1="97.9922" x2="469.6889" y2="118.7853" gradientTransform="matrix(0.6852 -0.7283 -0.7283 -0.6852 51.7988 516.5)">
		<stop  offset="0.0061" style="stop-color:#7FA401"/>
		<stop  offset="1" style="stop-color:#B6DF00"/>
	</linearGradient>
	<path fill="url(#SVGID_21_)" d="M326.281,77.577c0,0-23.604-35.216-60.386-1.882c0,0,2.143,3.101,6.787,2.773
		c0,0-8.907,1.016-15.94,8.492c0,0,1.174,1.827,4.342,1.916c0,0-8.479,2.866-15.513,10.343c0,0,10.835,7.303,24.613,7.255
		c0,0-2.401,0.631-3.088,2.515c0,0,14.479,10.729,26.392-1.55c0,0-1.555,3.958-0.37,6.156
		C293.12,113.595,326.087,113.892,326.281,77.577z"/>
	
		<linearGradient id="SVGID_22_" gradientUnits="userSpaceOnUse" x1="469.425" y1="118.4907" x2="483.6384" y2="140.3372" gradientTransform="matrix(0.6852 -0.7283 -0.7283 -0.6852 51.7988 516.5)">
		<stop  offset="0.0061" style="stop-color:#7FA401"/>
		<stop  offset="1" style="stop-color:#B6DF00"/>
	</linearGradient>
	<path fill="url(#SVGID_22_)" d="M265.896,75.695c0,0,2.143,3.101,6.787,2.773c0,0-8.907,1.016-15.94,8.492
		c0,0,1.174,1.827,4.342,1.916c0,0-8.479,2.866-15.513,10.343c46.703-1.117,80.709-21.642,80.709-21.642
		S302.677,42.36,265.896,75.695z"/>
	<path fill="#6E8703" d="M326.239,77.986c0.021,0.267,0.016,0.488,0.025,0.804c0.001,0.034-0.06,0.032-0.089,0.051
		c-6.043,3.312-12.293,6.003-18.666,8.438c-6.604,2.498-13.342,4.617-20.173,6.356c-13.659,3.477-27.703,5.422-41.762,5.584
		c14.05-0.513,27.997-2.806,41.489-6.602c6.748-1.898,13.384-4.171,19.868-6.808c6.423-2.635,12.783-5.584,18.706-9.073
		c0.035-0.021,0.261,0.395,0.296,0.375l0.34,0.455L326.239,77.986z"/>
	<g>
		<path fill="#6E8703" d="M335.503,71.033c-3.041,3.233-6.991,6.641-11.842,9.254c-0.512,0.276-1.15,0.084-1.427-0.428
			c-0.274-0.511-0.086-1.148,0.428-1.426c12.016-6.474,18.478-18.458,18.54-18.58c0.276-0.521,0.911-0.71,1.424-0.436
			c0.513,0.271,0.708,0.908,0.438,1.422C342.896,61.156,340.359,65.873,335.503,71.033z"/>
	</g>
</g>
<g opacity="0.5">
	
		<linearGradient id="SVGID_23_" gradientUnits="userSpaceOnUse" x1="66.4309" y1="259.9917" x2="46.3254" y2="274.9087" gradientTransform="matrix(0.7254 0.6884 0.6884 -0.7254 -120.0367 544.4107)">
		<stop  offset="0.0061" style="stop-color:#7FA401"/>
		<stop  offset="1" style="stop-color:#B6DF00"/>
	</linearGradient>
	<path fill="url(#SVGID_23_)" d="M60.292,389.755c0,0,12.996-3.016,16.621,1.171c0,0,1.192,1.729,1.666-0.656
		c0.473-2.381,2.68,0.16,5.979,3.592c3.302,3.431,9.627,5.559,9.076,2.056c-0.551-3.502,1.803-1.271,3.135-0.005
		c1.332,1.265,7.484,5.463,11.953,3.895c0,0,0.336-1.769-0.387-3.05c-0.721-1.28,0.251-2.147,2.739-0.53s6.718,2.5,8.222,1.543
		c0,0,0.493-1.619-0.062-2.291c-0.552-0.676-0.373-2.59,2.188-1.205c2.559,1.387,4.686,0.871,6.488-0.398
		c0,0-0.041-1.527-0.591-2.048c-0.549-0.521,0.873-1.706,3.88-0.79c0,0,2.077,0.48,3.325-1.463c0,0-0.576-1.592-1.575-1.795
		c-1-0.202,0.043-1.301,2.87-1.299c0,0,1.912,0.027,2.72-1.295c0,0-0.813-1.813-1.67-2.479c-0.858-0.665,1.343-1.26,3.086-1.839
		c1.744-0.581,1.716-1.65,1.716-1.65s-1.095-0.889-2.253-1.396c0,0,2.598-0.066,4.25-1.182c0,0-0.49-1.209-2.046-2.24
		c0,0,2.507-0.601,3.846-2.012c0,0-1.407-1.186-2.258-1.546c0,0,1.675-0.351,2.419-1.134c0,0-0.563-0.979-1.949-1.402
		c0,0,3.553-1.545,4.488-3.787c0,0-3.315-1.061-6.034,0.234c0,0,1.5-1.109,1.308-2.634c0,0-1.903,0.278-3.396,1.694
		c0,0,1.868-1.654,1.299-2.939c0,0-2.052,0.436-3.635,1.318c0,0-2.029,1.353-1.156-0.353c0.873-1.704,1.197-2.438,0.728-2.886
		c-0.471-0.446-3.564,2.577-4.341,2.141c-0.774-0.439,2.513-3.354,1-4.117c-0.364-0.187-3.629,2.963-4.399,2.676
		c-0.773-0.285,0.837-4.493-0.822-5.102c-0.592-0.217-3.355,3.223-4.368,2.562c-1.011-0.661,1.026-4.822-1.016-5.212
		c-0.884-0.166-2.907,4.32-4.993,3.533c-2.083-0.787,0.158-4.246-2.186-4.684c-0.595-0.109-3.038,2.26-6.496,5.98
		c0,0-0.602-2.508-2.021-4.151c0,0-2.215,0.134-5.146,4.951c-2.934,4.817-3.771,4.915-3.834,2.471
		c-0.064-2.444-0.877-4.259-3.388-0.829c-2.51,3.43-3.554,7.355-4.295,5.313c-0.742-2.045-1.354-5.012-5.333,0.75
		c-3.979,5.764-5.156,13.285-7.572,8.609c0,0-3.95,6.831-13.246,10.975C55.53,388.962,56.33,390.316,60.292,389.755z"/>
	
		<linearGradient id="SVGID_24_" gradientUnits="userSpaceOnUse" x1="50.8342" y1="271.0288" x2="30.2422" y2="289.9994" gradientTransform="matrix(0.7254 0.6884 0.6884 -0.7254 -120.0367 544.4107)">
		<stop  offset="0.0061" style="stop-color:#7FA401"/>
		<stop  offset="1" style="stop-color:#B6DF00"/>
	</linearGradient>
	<path fill="url(#SVGID_24_)" d="M142.136,364.753c0,0,1.5-1.11,1.308-2.634c0,0-1.903,0.279-3.396,1.693
		c0,0,1.868-1.653,1.299-2.938c0,0-2.052,0.437-3.635,1.317c0,0-2.029,1.354-1.156-0.352s1.197-2.439,0.728-2.886
		c-0.471-0.446-3.564,2.577-4.341,2.14c-0.774-0.438,2.513-3.354,1-4.117c-0.364-0.186-3.629,2.963-4.399,2.676
		c-0.773-0.284,0.837-4.492-0.822-5.101c-0.592-0.217-3.355,3.224-4.368,2.562c-1.011-0.661,1.026-4.822-1.016-5.211
		c-0.884-0.168-2.907,4.32-4.993,3.533c-2.083-0.787,0.158-4.248-2.186-4.685c-0.595-0.108-3.038,2.261-6.496,5.981
		c0,0-0.602-2.508-2.021-4.152c0,0-2.215,0.134-5.146,4.951c-2.934,4.816-3.771,4.916-3.834,2.471
		c-0.064-2.445-0.877-4.259-3.388-0.829c-2.51,3.431-3.554,7.356-4.295,5.312c-0.742-2.045-1.354-5.01-5.333,0.752
		c-3.979,5.763-5.156,13.285-7.572,8.607c0,0-3.95,6.832-13.246,10.975c-4.103,1.828-6.236,3.111-7.002,3.931
		c48.482-5.397,90.346-24.229,90.346-24.229S144.855,363.458,142.136,364.753z"/>
	<path fill="#6E8703" d="M148.17,364.52c-3.572,1.592-7.201,3.054-10.849,4.467c-3.648,1.412-7.322,2.756-11.018,4.041
		c-7.39,2.568-14.863,4.904-22.406,6.994c-15.084,4.172-30.844,7.67-46.414,9.492l0.771-1.168
		c15.529-1.654,30.41-4.783,45.516-8.793c7.554-2.01,15.043-4.266,22.454-6.756c3.705-1.247,7.393-2.553,11.054-3.924
		C140.938,367.497,144.583,366.073,148.17,364.52z"/>
	<g>
		<path fill="#6E8703" d="M35.002,389.003c-0.129-0.123-0.187-0.312-0.133-0.493c0.076-0.257,0.349-0.404,0.604-0.326
			c10.385,3.088,23.369,0.202,23.499,0.174c0.263-0.061,0.522,0.104,0.582,0.367c0.061,0.262-0.104,0.521-0.366,0.582
			c-0.133,0.029-13.357,2.973-23.992-0.19C35.122,389.093,35.055,389.055,35.002,389.003z"/>
	</g>
</g>
<g opacity="0.5">
	
		<linearGradient id="SVGID_25_" gradientUnits="userSpaceOnUse" x1="230.1384" y1="-80.2422" x2="256.1874" y2="-95.1139" gradientTransform="matrix(0.1599 0.9871 0.9871 -0.1599 195.6271 -4.0493)">
		<stop  offset="0.0061" style="stop-color:#7FA401"/>
		<stop  offset="1" style="stop-color:#B6DF00"/>
	</linearGradient>
	<path fill="url(#SVGID_25_)" d="M127.386,226.14c0,0-1.085,1.199-2.996,1.253l0.491,1.456c0,0-1.928-0.84-5.866,2.484
		c0,0,0.519,0.045,1.971,0.321c0,0-4.06,2.577-3.422,8.103c0,0,1.396-0.865,3.077-0.754c0,0-4.502,3.799-3.634,9.16
		c0,0,1.085-1.199,2.562-1.566c0,0-5.804,6.826,2.877,15.4c0,0,6.216-1.903,7.626-5.842c0,0,1.471,5.135,5.329,6.046
		c0,0,2.127-1.88,1.824-3.75c0,0,0.912,4.843,4.392,6.581c0,0,0.98-1.055,0.839-1.928c0,0,0.061,5.107,10.369,11.883
		c0,0,5.592-10.502,1.578-17.912c0,0,1.344,1.191,2.382,1.278c0,0,0.557-3.673-1.465-6.672c0,0,1.971,0.319,2.662-0.943
		c0.69-1.263,0.896-0.784,2.221,0.28c1.324,1.065,2.628,2.006,4.288,1.992c0,0,0.884-2.447-0.043-4.215c0,0,5.624,0.752,9.492-0.643
		c0,0-0.491-1.455-1.404-1.563c0,0,6.143,0.795,14.855-2.279c0,0-4.222-7.889-10.143-11.278c0,0,1.537,0.006,2.412-0.903
		c0,0-0.693-2.702-5.48-4.613c0,0,1.741,0.484,3.098-0.63c0,0-2.163-3.872-11.25-5.471c0,0-0.131-3.177,1.952-4.538
		c2.082-1.361,3.794-3.43,3.794-3.43s-1.927-0.84-3.299-0.617c0,0,7.226-4.369,8.538-14.433c0,0-9.054,0.187-15.655,4.454
		c0,0,0.521-0.724-0.215-2.907c0,0-3.72,0.73-6.489,2.587c0,0,0.634-2.406-0.225-5.338c0,0-4.613,0.747-6.666,4.662
		c0,0,0.052-6.789-6.439-12.902c0,0-9.891,6.079-7.83,14.063c0,0-2.133-1.318-1.412-4.762c0,0-5.631,5.519-1.981,11.452
		c0,0-2.503-2.024-2.706-3.271c0,0-4.071,4.882-0.527,10.96c0,0-1.907-0.714-2.192-1.691c0,0-1.355,5.85,3.055,8.59
		C127.726,224.294,128.467,225.708,127.386,226.14z"/>
	
		<linearGradient id="SVGID_26_" gradientUnits="userSpaceOnUse" x1="196.7825" y1="-57.1758" x2="231.1669" y2="-82.4667" gradientTransform="matrix(0.1599 0.9871 0.9871 -0.1599 195.6271 -4.0493)">
		<stop  offset="0.0061" style="stop-color:#7FA401"/>
		<stop  offset="1" style="stop-color:#B6DF00"/>
	</linearGradient>
	<path fill="url(#SVGID_26_)" d="M177.247,233.033c0,0,1.537,0.006,2.412-0.903c0,0-0.693-2.702-5.48-4.613
		c0,0,1.741,0.484,3.098-0.63c0,0-2.163-3.872-11.25-5.471c0,0-0.131-3.177,1.952-4.538c2.082-1.361,3.794-3.43,3.794-3.43
		s-1.927-0.84-3.299-0.617c0,0,7.226-4.369,8.538-14.433c0,0-9.054,0.187-15.655,4.454c0,0,0.521-0.724-0.215-2.907
		c0,0-3.721,0.73-6.489,2.587c0,0,0.634-2.406-0.225-5.338c0,0-4.613,0.747-6.666,4.662c0,0,0.052-6.789-6.439-12.902
		c0,0-9.891,6.079-7.83,14.063c0,0-2.133-1.318-1.412-4.762c0,0-5.631,5.519-1.981,11.452c0,0-2.503-2.024-2.706-3.271
		c0,0-4.071,4.882-0.527,10.96c0,0-1.907-0.714-2.192-1.691c0,0-1.355,5.85,3.055,8.59c0,0,0.169,0.324,0.227,0.712
		c0.006,0.005,0.013,0.011,0.02,0.017c14.625,12.088,59.418,19.289,59.418,19.289S183.169,236.423,177.247,233.033z"/>
	<path fill="#6E8703" d="M187.391,244.312c-5.183-0.82-10.338-1.802-15.474-2.887c-5.134-1.092-10.242-2.305-15.31-3.691
		c-5.065-1.393-10.092-2.95-15.006-4.85c-2.455-0.953-4.881-1.994-7.241-3.19c-2.242-1.145-4.439-2.419-6.451-3.995
		c-0.101-0.078,0.091-0.395,0.104-0.51l-0.255-0.885c1.965,1.645,4.767,3.285,7.059,4.506c2.299,1.219,4.681,2.293,7.099,3.281
		c4.841,1.974,9.82,3.615,14.846,5.096c5.027,1.475,10.107,2.777,15.217,3.96C177.088,242.324,182.224,243.397,187.391,244.312z"/>
	<path fill="#6E8703" d="M128.113,225.876c-2.187-1.395-4.222-2.936-6.204-4.572c-1.973-1.639-3.862-3.385-5.641-5.244
		c-3.547-3.716-6.697-7.9-8.892-12.643c-0.207-0.449-0.012-0.982,0.438-1.191c0.449-0.207,0.983-0.012,1.189,0.438
		c0.002,0.005,0.005,0.009,0.008,0.014l0.002,0.006c1.983,4.548,4.938,8.674,8.322,12.376c1.697,1.851,3.511,3.602,5.413,5.252
		c1.902,1.644,3.897,3.219,5.97,4.604l0.014,0.009c0.26,0.175,0.331,0.527,0.156,0.788
		C128.719,225.97,128.371,226.042,128.113,225.876z"/>
</g>
<g opacity="0.5">
	<g>
		
			<linearGradient id="SVGID_27_" gradientUnits="userSpaceOnUse" x1="353.3088" y1="956.2217" x2="373.3737" y2="937.5896" gradientTransform="matrix(-0.7782 -0.628 -0.628 0.7782 1369.0374 -410.0083)">
			<stop  offset="0.0061" style="stop-color:#7FA401"/>
			<stop  offset="1" style="stop-color:#B6DF00"/>
		</linearGradient>
		<path fill="url(#SVGID_27_)" d="M524.495,75.707c0,0-0.754,23.595-22.045,30.091c-24.864,7.588-38.981-14.617-48.328-16.24
			c0,0,11.017-7.29,26.515-20.304C492.191,59.555,515.383,49.672,524.495,75.707z"/>
		
			<linearGradient id="SVGID_28_" gradientUnits="userSpaceOnUse" x1="371.6511" y1="939.4063" x2="390.0777" y2="921.1844" gradientTransform="matrix(-0.7782 -0.628 -0.628 0.7782 1369.0374 -410.0083)">
			<stop  offset="0.0061" style="stop-color:#7FA401"/>
			<stop  offset="1" style="stop-color:#B6DF00"/>
		</linearGradient>
		<path fill="url(#SVGID_28_)" d="M524.495,75.707c-9.112-26.035-32.305-16.152-43.858-6.453
			c-15.498,13.014-26.515,20.304-26.515,20.304S492.896,88.618,524.495,75.707z"/>
		<path fill="#6E8703" d="M454.122,89.558c5.998-0.264,11.98-0.834,17.935-1.563c5.957-0.736,11.889-1.668,17.771-2.816
			c5.888-1.149,11.729-2.516,17.488-4.163c5.758-1.646,11.437-3.571,16.949-5.877l0.227,0.581l0.013,0.368
			c0.012,0.121,0.049,0.258-0.037,0.293c-5.523,2.186-11.183,3.992-16.904,5.523c-5.816,1.555-11.701,2.827-17.621,3.878
			c-5.918,1.053-11.875,1.883-17.848,2.52C466.118,88.927,460.127,89.396,454.122,89.558z"/>
	</g>
	<g>
		<path fill="#6E8703" d="M545.021,61.612c0.037,0.149,0.008,0.312-0.092,0.444c-7.242,9.726-22.152,14.907-22.783,15.123
			c-0.277,0.096-0.582-0.053-0.678-0.331c-0.097-0.278,0.055-0.581,0.334-0.677c0.149-0.051,15.229-5.293,22.272-14.752
			c0.177-0.234,0.511-0.284,0.746-0.108C544.926,61.389,544.991,61.496,545.021,61.612z"/>
	</g>
</g>
<g opacity="0.5">
	<path fill="#738E03" d="M725.761,248.596c-0.024,0.153,0.079,0.298,0.23,0.324c0.062,0.008,0.121-0.001,0.172-0.027
		c0.077-0.039,0.138-0.114,0.152-0.206c0.736-4.54,2.583-8.074,4.653-10.746l-0.436-0.358
		C728.411,240.318,726.518,243.942,725.761,248.596z"/>
	
		<linearGradient id="SVGID_29_" gradientUnits="userSpaceOnUse" x1="191.3625" y1="460.0596" x2="198.3554" y2="472.5469" gradientTransform="matrix(0.638 -0.7701 -0.7701 -0.638 1000.0582 675.821)">
		<stop  offset="0.0061" style="stop-color:#7FA401"/>
		<stop  offset="1" style="stop-color:#B6DF00"/>
	</linearGradient>
	<path fill="url(#SVGID_29_)" d="M730.344,238.151c0,0,3.498,3.264,11.324-2.658c7.823-5.922,11.342,3.924,22.25-1.755
		c10.907-5.68,12.543-14.987,24.804-14.965c7.649,0.014,10.496-2.98,10.496-2.98s-7.729,1.988-18.458-4.587
		c-10.726-6.577-43.242-17.826-50.159,24.727L730.344,238.151z"/>
	
		<linearGradient id="SVGID_30_" gradientUnits="userSpaceOnUse" x1="198.6003" y1="472.6191" x2="206.8417" y2="486.3545" gradientTransform="matrix(0.638 -0.7701 -0.7701 -0.638 1000.0582 675.821)">
		<stop  offset="0.0061" style="stop-color:#7FA401"/>
		<stop  offset="1" style="stop-color:#B6DF00"/>
	</linearGradient>
	<path fill="url(#SVGID_30_)" d="M780.76,211.206c-10.726-6.577-43.242-17.826-50.159,24.727l-0.257,2.219
		c0,0,11.074-9.815,30.229-16.202c19.155-6.387,32.778-3.945,38.646-6.156C799.218,215.793,791.488,217.781,780.76,211.206z"/>
	<path fill="#738E03" d="M730.345,238.146c-0.001,0.002,0.005-0.208,0.025-0.257c0.002-0.003,0.009-0.006,0.013-0.009
		c0.568-0.454,2.477-1.962,3.5-2.695c1.253-0.896,2.531-1.753,3.83-2.578c2.602-1.649,5.278-3.171,8.021-4.57
		c5.48-2.797,11.206-5.113,17.094-6.904c5.889-1.785,11.96-2.938,18.08-3.534c3.059-0.308,6.129-0.473,9.197-0.629
		c1.535-0.081,3.07-0.159,4.6-0.304c0.765-0.073,1.526-0.164,2.283-0.297c0.757-0.133,1.508-0.307,2.229-0.575
		c-0.721,0.271-1.472,0.449-2.229,0.587c-0.756,0.136-1.52,0.231-2.283,0.308c-1.528,0.153-3.063,0.24-4.598,0.329
		c-3.069,0.171-6.137,0.353-9.191,0.675c-6.11,0.626-12.168,1.808-18.036,3.619c-5.864,1.817-11.566,4.159-17.021,6.976
		c-2.726,1.41-5.39,2.941-7.971,4.597c-1.291,0.829-2.562,1.689-3.805,2.586c-1.23,0.895-2.449,1.815-3.595,2.803
		c-0.008,0.007-0.063-0.059-0.069-0.053L730.345,238.146z"/>
</g>
<g opacity="0.5">
	
		<linearGradient id="SVGID_31_" gradientUnits="userSpaceOnUse" x1="891.0237" y1="-589.8257" x2="875.5656" y2="-590.6952" gradientTransform="matrix(0.74 0.6726 0.6726 -0.74 225.0309 -665.921)">
		<stop  offset="0.0061" style="stop-color:#7FA401"/>
		<stop  offset="1" style="stop-color:#B6DF00"/>
	</linearGradient>
	<path fill="url(#SVGID_31_)" d="M467.22,383.578c0,0,21.379-10.595,32.035-10.829c10.658-0.234,36.691,6.457,39.109,11.268
		c0,0-7.347-16.338-30.609-19.469C484.49,361.418,464.333,357.453,467.22,383.578z"/>
	<path fill="#7FA401" d="M538.365,384.015c-0.245-0.471-0.632-0.854-1.031-1.19c-0.406-0.343-0.843-0.642-1.293-0.919
		c-0.898-0.555-1.849-1.029-2.81-1.469c-1.928-0.869-3.918-1.601-5.924-2.269c-4.02-1.323-8.119-2.396-12.252-3.289
		c-4.137-0.877-8.314-1.604-12.527-1.92c-1.055-0.071-2.107-0.116-3.164-0.096c-1.049,0.021-2.098,0.141-3.139,0.307
		c-2.081,0.337-4.131,0.861-6.158,1.459c-4.049,1.203-8.006,2.707-11.912,4.324c-3.903,1.623-7.76,3.367-11.549,5.241
		c-1.876,0.947-3.692,2.031-5.457,3.182c-1.766,1.156-3.475,2.395-5.108,3.721c-3.27,2.654-6.273,5.664-8.654,9.125
		c-0.093,0.131-0.273,0.166-0.404,0.076c-0.133-0.092-0.166-0.272-0.074-0.404l0.001-0.004c2.442-3.504,5.502-6.528,8.813-9.188
		c1.658-1.328,3.389-2.568,5.172-3.721c1.787-1.15,3.617-2.227,5.523-3.178c3.811-1.856,7.682-3.58,11.604-5.188
		c3.922-1.598,7.896-3.082,11.972-4.27c2.034-0.586,4.098-1.103,6.194-1.431c1.053-0.159,2.111-0.274,3.176-0.289
		c1.064-0.016,2.125,0.033,3.183,0.113c4.229,0.34,8.406,1.094,12.544,1.996c4.134,0.916,8.228,2.012,12.245,3.362
		c2.004,0.679,3.989,1.418,5.914,2.304c0.961,0.444,1.907,0.922,2.805,1.481c0.449,0.283,0.886,0.588,1.289,0.93
		C537.74,383.16,538.121,383.543,538.365,384.015z"/>
	
		<linearGradient id="SVGID_32_" gradientUnits="userSpaceOnUse" x1="909.26" y1="-588.0981" x2="894.9589" y2="-576.5991" gradientTransform="matrix(0.74 0.6726 0.6726 -0.74 225.0309 -665.921)">
		<stop  offset="0.0061" style="stop-color:#7FA401"/>
		<stop  offset="1" style="stop-color:#B6DF00"/>
	</linearGradient>
	<path fill="url(#SVGID_32_)" d="M499.256,372.749c10.658-0.234,36.69,6.457,39.109,11.268c0,0-7.347-16.338-30.609-19.469
		c-3.855-0.52-7.627-1.061-11.221-1.486c-9.315,1.173-23.367,5.498-29.314,20.518C467.22,383.578,488.599,372.983,499.256,372.749z"
		/>
</g>
<g opacity="0.5">
	<g>
		<g>
			
				<linearGradient id="SVGID_33_" gradientUnits="userSpaceOnUse" x1="515.7239" y1="402.8682" x2="543.1072" y2="393.1319" gradientTransform="matrix(0.6563 0.7545 0.7545 -0.6563 -327.2823 244.9319)">
				<stop  offset="0.0061" style="stop-color:#7FA401"/>
				<stop  offset="1" style="stop-color:#B6DF00"/>
			</linearGradient>
			<path fill="url(#SVGID_33_)" d="M272.575,390.229c0,0,11.473-4.735,23.374,9.5c12.362,14.787,14.044,6.871,11.208,4.23
				c0,0,10.896,6.652,11.54,1.521c0,0,7.687,1.111,8.804-2.549c1.118-3.662-1.49-5.426-1.49-5.426s2.627-4.705-6.617-8.226
				c0,0,13.071,6.375,15.015,1.188c0,0,9.504-0.201,10.262-4.893c0.758-4.693-6.717-6.795-6.717-6.795s6.449,0.307,5.981-3.32
				c0,0,5.73-1.758,3.566-5.791c0,0,6.229-2.729,3.699-5.638c0,0,6.027-6.05,7.32-8.069c1.288-2.02,2.666-2.318-2.604-2.529
				c-4.827-0.192-7.463-0.543-11.576,1.063c0,0-5.423-4.021-10.484-0.153c0,0-6.57-7.502-17.035,3.75c0,0,3.169-9.029-1.468-11.269
				c-3.321-1.604-7.477,2.737-7.477,2.737s-4.049-3.108-8.771,4.136c0,0-6.559-2.183-10.158,10.985
				c-3.601,13.168-8.297,20.75-16.636,24.865L272.575,390.229z"/>
			
				<linearGradient id="SVGID_34_" gradientUnits="userSpaceOnUse" x1="495.9026" y1="411.2266" x2="520.108" y2="401.0846" gradientTransform="matrix(0.6563 0.7545 0.7545 -0.6563 -327.2823 244.9319)">
				<stop  offset="0.0061" style="stop-color:#7FA401"/>
				<stop  offset="1" style="stop-color:#B6DF00"/>
			</linearGradient>
			<path fill="url(#SVGID_34_)" d="M359.447,353.821c-0.433-0.207-1.474-0.304-3.531-0.386c-4.827-0.192-7.463-0.543-11.576,1.063
				c0,0-5.423-4.021-10.484-0.153c0,0-6.57-7.502-17.035,3.75c0,0,3.169-9.029-1.468-11.269c-3.321-1.604-7.477,2.738-7.477,2.738
				s-4.049-3.109-8.771,4.135c0,0-6.559-2.183-10.158,10.985c-3.601,13.168-8.297,20.75-16.636,24.865
				C314.275,379.688,355.631,356.035,359.447,353.821z"/>
			<path fill="#6E8703" d="M359.734,353.655c-6.829,3.971-13.83,7.646-20.905,11.16c-7.082,3.506-14.261,6.819-21.536,9.909
				c-7.274,3.091-14.647,5.955-22.126,8.527c-7.479,2.57-14.924,5.057-22.622,6.902l-0.289-0.758
				c7.685-1.773,15.23-4.221,22.714-6.721c7.485-2.502,14.873-5.304,22.167-8.326c7.293-3.023,14.495-6.273,21.604-9.717
				C345.841,361.18,352.872,357.567,359.734,353.655z"/>
		</g>
		<g>
			<path fill="#6E8703" d="M253.519,394.926c-0.046-0.054-0.081-0.117-0.102-0.191c-0.065-0.252,0.085-0.512,0.34-0.578
				l20.704-5.424c0.253-0.068,0.514,0.084,0.58,0.338c0.065,0.254-0.086,0.514-0.339,0.58l-20.706,5.424
				C253.818,395.12,253.635,395.057,253.519,394.926z"/>
		</g>
	</g>
	<g>
		<g>
			
				<linearGradient id="SVGID_35_" gradientUnits="userSpaceOnUse" x1="737.3958" y1="328.6348" x2="742.7466" y2="337.0891" gradientTransform="matrix(0.3687 0.9295 0.9295 -0.3687 -323.1833 -193.5671)">
				<stop  offset="0.0061" style="stop-color:#7FA401"/>
				<stop  offset="1" style="stop-color:#B6DF00"/>
			</linearGradient>
			<path fill="url(#SVGID_35_)" d="M262.96,389.622c0,0,17.037-2.614,11.111-21.905c0,0-1.512,0.254-2.192,2.02
				c0,0,1.162-3.453-0.376-7.332c0,0-0.875,0.115-1.455,1.268c0,0,0.408-3.615-1.131-7.496c0,0-4.558,2.73-6.917,7.812
				c0,0,0.182-0.994-0.394-1.571c0,0-6.448,3.479-3.983,9.983c0,0-1.188-1.255-2.202-1.197
				C255.422,371.2,249.624,383.286,262.96,389.622z"/>
			
				<linearGradient id="SVGID_36_" gradientUnits="userSpaceOnUse" x1="742.6389" y1="336.9688" x2="748.4179" y2="345.8512" gradientTransform="matrix(0.3687 0.9295 0.9295 -0.3687 -323.1833 -193.5671)">
				<stop  offset="0.0061" style="stop-color:#7FA401"/>
				<stop  offset="1" style="stop-color:#B6DF00"/>
			</linearGradient>
			<path fill="url(#SVGID_36_)" d="M274.072,367.717c0,0-1.512,0.254-2.192,2.02c0,0,1.162-3.453-0.376-7.332
				c0,0-0.875,0.115-1.455,1.268c0,0,0.408-3.615-1.131-7.496c-7.646,17.387-5.957,33.447-5.957,33.447
				S279.998,387.008,274.072,367.717z"/>
			<path fill="#6E8703" d="M262.818,389.536c-0.103-0.039-0.183-0.078-0.3-0.129c-0.014-0.006-0.002-0.026-0.003-0.043
				c-0.178-2.795-0.089-5.562,0.112-8.326c0.221-2.862,0.603-5.709,1.141-8.522c1.076-5.629,2.783-11.135,5.148-16.34
				c-2.234,5.262-3.797,10.793-4.727,16.414c-0.466,2.813-0.774,5.647-0.921,8.489c-0.139,2.817-0.149,5.668,0.113,8.451
				c0.001,0.017-0.191,0.026-0.189,0.045l-0.227,0.045L262.818,389.536z"/>
		</g>
		<g>
			<path fill="#6E8703" d="M263.394,392.315c-0.859-0.988-0.876-2.853-0.875-3.095c0.002-0.211,0.185-0.664,0.395-0.662
				c0.209,0,0.455,0.722,0.453,0.933c-0.004,0.578,0.202,1.806,0.6,2.324c0.128,0.168,0.121,0.397-0.036,0.536
				C263.771,392.491,263.531,392.473,263.394,392.315z"/>
		</g>
	</g>
	<g>
		<g>
			
				<linearGradient id="SVGID_37_" gradientUnits="userSpaceOnUse" x1="602.7522" y1="298.6895" x2="608.103" y2="307.1436" gradientTransform="matrix(0.0105 -0.9999 0.9999 0.0105 -42.681 1015.0074)">
				<stop  offset="0.0061" style="stop-color:#7FA401"/>
				<stop  offset="1" style="stop-color:#B6DF00"/>
			</linearGradient>
			<path fill="url(#SVGID_37_)" d="M263.71,394.614c0,0,16.84-3.674,18.233,16.461c0,0-1.501,0.306-2.771-1.101
				c0,0,2.324,2.808,2.281,6.98c0,0-0.857,0.205-1.812-0.662c0,0,1.678,3.229,1.634,7.402c0,0-5.234-0.912-9.26-4.807
				c0,0,0.524,0.86,0.196,1.606c0,0-7.267-0.935-7.301-7.892c0,0-0.659,1.601-1.625,1.91
				C263.286,414.516,253.537,405.317,263.71,394.614z"/>
			
				<linearGradient id="SVGID_38_" gradientUnits="userSpaceOnUse" x1="607.9963" y1="307.0254" x2="613.775" y2="315.9076" gradientTransform="matrix(0.0105 -0.9999 0.9999 0.0105 -42.681 1015.0074)">
				<stop  offset="0.0061" style="stop-color:#7FA401"/>
				<stop  offset="1" style="stop-color:#B6DF00"/>
			</linearGradient>
			<path fill="url(#SVGID_38_)" d="M281.943,411.075c0,0-1.501,0.306-2.771-1.101c0,0,2.324,2.808,2.281,6.98
				c0,0-0.857,0.205-1.812-0.662c0,0,1.678,3.229,1.634,7.402c-13.378-13.484-17.565-29.082-17.565-29.082
				S280.55,390.94,281.943,411.075z"/>
			<path fill="#6E8703" d="M263.607,394.747c-0.081,0.072-0.143,0.14-0.233,0.229c-0.01,0.01,0.008,0.024,0.013,0.039
				c0.838,2.674,1.912,5.225,3.095,7.731c1.232,2.595,2.61,5.113,4.124,7.547c3.024,4.867,6.594,9.394,10.671,13.402
				c-3.977-4.108-7.418-8.711-10.304-13.623c-1.444-2.459-2.75-4.994-3.906-7.595c-1.142-2.581-2.174-5.237-2.929-7.93
				c-0.005-0.016-0.188,0.043-0.192,0.027l-0.229,0.037L263.607,394.747z"/>
		</g>
		<path fill="#6E8703" d="M263.35,391.934c-0.531,1.195,0,2.984,0.072,3.216c0.063,0.198,0.372,0.579,0.572,0.518
			c0.2-0.063,0.223-0.823,0.16-1.022c-0.174-0.553-0.337-1.787-0.111-2.4c0.073-0.197-0.001-0.416-0.191-0.502
			C263.66,391.657,263.435,391.743,263.35,391.934z"/>
	</g>
</g>
<g opacity="0.5">
	<g>
		
			<linearGradient id="SVGID_39_" gradientUnits="userSpaceOnUse" x1="-15.2732" y1="166.1826" x2="9.1805" y2="144.1505" gradientTransform="matrix(0.4792 0.8778 0.8778 -0.4792 -42.3937 179.8253)">
			<stop  offset="0.0061" style="stop-color:#7FA401"/>
			<stop  offset="1" style="stop-color:#B6DF00"/>
		</linearGradient>
		<path fill="url(#SVGID_39_)" d="M52.979,85.173c0,0,14.427-28.15,43.937-24.12c30.459,4.157,29.751,34.792,39.229,40.789
			c0,0-13.379-2.521-35.813,8.929c-12.266,6.261-27.119,7.676-35.861,2.442C57.025,108.757,50.433,100.217,52.979,85.173z"/>
		
			<linearGradient id="SVGID_40_" gradientUnits="userSpaceOnUse" x1="-37.5159" y1="184.1553" x2="-13.5473" y2="164.0602" gradientTransform="matrix(0.4792 0.8778 0.8778 -0.4792 -42.3937 179.8253)">
			<stop  offset="0.0061" style="stop-color:#7FA401"/>
			<stop  offset="1" style="stop-color:#B6DF00"/>
		</linearGradient>
		<path fill="url(#SVGID_40_)" d="M94.507,87.469c17.975-1.242,37.855,11.78,41.152,14.037c-8.979-6.721-8.816-36.368-38.745-40.453
			c-29.51-4.03-43.937,24.12-43.937,24.12C57.366,88.156,74.836,88.828,94.507,87.469z"/>
		<path fill="#6E8703" d="M136.145,101.842c-2.986-2.033-6.118-3.846-9.314-5.521c-3.201-1.667-6.488-3.171-9.855-4.458
			c-6.719-2.547-13.851-4.336-21.026-4.101c-7.182,0.518-14.436,0.935-21.677,0.913c-3.623-0.01-7.25-0.109-10.878-0.415
			c-1.813-0.159-3.627-0.367-5.438-0.697c-0.904-0.169-1.81-0.366-2.709-0.634c-0.898-0.272-1.802-0.589-2.677-1.155l0.816-1.202
			c0.638,0.433,1.45,0.752,2.271,1.012c0.827,0.261,1.688,0.465,2.556,0.642c1.74,0.349,3.516,0.583,5.299,0.768
			c3.568,0.363,7.17,0.523,10.771,0.592c7.214,0.142,14.404-0.148,21.646-0.548c3.651-0.07,7.284,0.403,10.822,1.202
			c3.542,0.805,6.996,1.94,10.354,3.286c3.361,1.35,6.631,2.912,9.812,4.636C130.088,97.891,133.19,99.759,136.145,101.842z"/>
	</g>
	<g>
		<path fill="#6E8703" d="M34.914,71.335c-0.136-0.258-0.052-0.579,0.201-0.733c0.261-0.162,0.604-0.081,0.767,0.181
			c6.144,9.934,18.713,14.535,18.839,14.58c0.29,0.104,0.439,0.423,0.336,0.713c-0.104,0.289-0.423,0.439-0.713,0.336
			c-0.53-0.19-13.063-4.78-19.41-15.043C34.927,71.357,34.92,71.346,34.914,71.335z"/>
	</g>
</g>
<g opacity="0.5">
	<g>
		
			<linearGradient id="SVGID_41_" gradientUnits="userSpaceOnUse" x1="194.8792" y1="1411.0625" x2="214.944" y2="1392.4303" gradientTransform="matrix(-0.7782 -0.628 -0.628 0.7782 1369.0374 -410.0083)">
			<stop  offset="0.0061" style="stop-color:#7FA401"/>
			<stop  offset="1" style="stop-color:#B6DF00"/>
		</linearGradient>
		<path fill="url(#SVGID_41_)" d="M362.146,529.155c0,0-0.754,23.595-22.045,30.091c-24.866,7.588-38.982-14.616-48.329-16.239
			c0,0,11.016-7.29,26.514-20.305C329.84,513.003,353.031,503.12,362.146,529.155z"/>
		
			<linearGradient id="SVGID_42_" gradientUnits="userSpaceOnUse" x1="213.2214" y1="1394.2471" x2="231.6481" y2="1376.0253" gradientTransform="matrix(-0.7782 -0.628 -0.628 0.7782 1369.0374 -410.0083)">
			<stop  offset="0.0061" style="stop-color:#7FA401"/>
			<stop  offset="1" style="stop-color:#B6DF00"/>
		</linearGradient>
		<path fill="url(#SVGID_42_)" d="M362.146,529.155c-9.113-26.035-32.305-16.152-43.86-6.453
			c-15.499,13.015-26.514,20.305-26.514,20.305S330.545,542.066,362.146,529.155z"/>
		<path fill="#6E8703" d="M291.772,543.005c5.999-0.264,11.98-0.834,17.934-1.563c5.957-0.736,11.89-1.668,17.771-2.816
			c5.887-1.149,11.728-2.516,17.489-4.162c5.758-1.646,11.436-3.571,16.948-5.878l0.228,0.581l0.012,0.368
			c0.012,0.121,0.049,0.258-0.037,0.293c-5.522,2.187-11.182,3.992-16.903,5.523c-5.817,1.554-11.702,2.827-17.622,3.878
			c-5.918,1.053-11.875,1.883-17.849,2.52C303.769,542.375,297.775,542.844,291.772,543.005z"/>
	</g>
	<g>
		<path fill="#6E8703" d="M382.671,515.061c0.036,0.148,0.008,0.312-0.093,0.443c-7.242,9.727-22.152,14.907-22.783,15.123
			c-0.277,0.097-0.582-0.053-0.679-0.331c-0.096-0.277,0.056-0.58,0.334-0.677c0.15-0.051,15.23-5.293,22.274-14.752
			c0.176-0.233,0.51-0.284,0.746-0.107C382.575,514.837,382.642,514.944,382.671,515.061z"/>
	</g>
</g>
<g opacity="0.5">
	
		<linearGradient id="SVGID_43_" gradientUnits="userSpaceOnUse" x1="178.1697" y1="481.3008" x2="204.2183" y2="466.4294" gradientTransform="matrix(0.1599 0.9871 0.9871 -0.1599 195.6271 -4.0493)">
		<stop  offset="0.0061" style="stop-color:#7FA401"/>
		<stop  offset="1" style="stop-color:#B6DF00"/>
	</linearGradient>
	<path fill="url(#SVGID_43_)" d="M673.378,85.046c0,0-1.085,1.199-2.996,1.253l0.491,1.456c0,0-1.928-0.84-5.866,2.484
		c0,0,0.519,0.045,1.971,0.321c0,0-4.06,2.577-3.422,8.103c0,0,1.396-0.865,3.077-0.754c0,0-4.502,3.799-3.634,9.16
		c0,0,1.085-1.199,2.562-1.566c0,0-5.804,6.826,2.878,15.4c0,0,6.216-1.903,7.625-5.842c0,0,1.472,5.135,5.329,6.046
		c0,0,2.127-1.88,1.824-3.75c0,0,0.911,4.843,4.392,6.581c0,0,0.98-1.055,0.84-1.928c0,0,0.061,5.107,10.369,11.883
		c0,0,5.592-10.502,1.577-17.912c0,0,1.344,1.191,2.382,1.278c0,0,0.558-3.673-1.465-6.672c0,0,1.971,0.319,2.662-0.943
		c0.69-1.263,0.896-0.784,2.221,0.28c1.324,1.065,2.628,2.006,4.288,1.992c0,0,0.884-2.447-0.043-4.215c0,0,5.624,0.752,9.492-0.643
		c0,0-0.491-1.455-1.404-1.563c0,0,6.143,0.795,14.854-2.279c0,0-4.222-7.889-10.143-11.278c0,0,1.536,0.006,2.412-0.903
		c0,0-0.693-2.702-5.48-4.613c0,0,1.741,0.484,3.098-0.63c0,0-2.163-3.872-11.25-5.471c0,0-0.131-3.177,1.951-4.538
		c2.082-1.361,3.795-3.43,3.795-3.43s-1.927-0.84-3.299-0.617c0,0,7.226-4.369,8.537-14.433c0,0-9.054,0.188-15.654,4.454
		c0,0,0.521-0.724-0.216-2.907c0,0-3.721,0.73-6.489,2.587c0,0,0.634-2.406-0.225-5.338c0,0-4.613,0.747-6.666,4.662
		c0,0,0.052-6.789-6.439-12.902c0,0-9.891,6.079-7.83,14.063c0,0-2.133-1.318-1.412-4.762c0,0-5.631,5.519-1.981,11.452
		c0,0-2.503-2.024-2.705-3.271c0,0-4.071,4.882-0.527,10.96c0,0-1.906-0.714-2.193-1.691c0,0-1.354,5.85,3.056,8.59
		C673.718,83.2,674.459,84.614,673.378,85.046z"/>
	
		<linearGradient id="SVGID_44_" gradientUnits="userSpaceOnUse" x1="144.8167" y1="504.3672" x2="179.2009" y2="479.0763" gradientTransform="matrix(0.1599 0.9871 0.9871 -0.1599 195.6271 -4.0493)">
		<stop  offset="0.0061" style="stop-color:#7FA401"/>
		<stop  offset="1" style="stop-color:#B6DF00"/>
	</linearGradient>
	<path fill="url(#SVGID_44_)" d="M723.24,91.939c0,0,1.536,0.006,2.412-0.903c0,0-0.694-2.702-5.48-4.613
		c0,0,1.741,0.484,3.098-0.63c0,0-2.163-3.872-11.25-5.471c0,0-0.131-3.177,1.951-4.538c2.082-1.361,3.795-3.43,3.795-3.43
		s-1.927-0.84-3.299-0.617c0,0,7.226-4.369,8.536-14.433c0,0-9.053,0.187-15.653,4.454c0,0,0.521-0.724-0.216-2.907
		c0,0-3.721,0.73-6.489,2.587c0,0,0.634-2.406-0.226-5.338c0,0-4.612,0.747-6.666,4.662c0,0,0.053-6.789-6.438-12.902
		c0,0-9.891,6.079-7.83,14.063c0,0-2.133-1.318-1.412-4.762c0,0-5.631,5.519-1.981,11.452c0,0-2.504-2.024-2.705-3.271
		c0,0-4.071,4.882-0.527,10.96c0,0-1.906-0.714-2.193-1.691c0,0-1.354,5.85,3.056,8.59c0,0,0.17,0.324,0.228,0.712
		c0.007,0.005,0.012,0.011,0.02,0.017c14.625,12.088,59.418,19.289,59.418,19.289S729.16,95.329,723.24,91.939z"/>
	<path fill="#6E8703" d="M733.382,103.218c-5.183-0.82-10.338-1.802-15.474-2.887c-5.134-1.092-10.242-2.305-15.31-3.691
		c-5.065-1.393-10.093-2.95-15.006-4.85c-2.455-0.953-4.881-1.994-7.241-3.19c-2.242-1.145-4.439-2.419-6.45-3.995
		c-0.101-0.078,0.091-0.395,0.104-0.51l-0.256-0.885c1.966,1.645,4.768,3.285,7.06,4.506c2.299,1.219,4.681,2.293,7.099,3.281
		c4.84,1.974,9.82,3.615,14.846,5.096c5.027,1.475,10.107,2.777,15.217,3.96C723.08,101.23,728.216,102.304,733.382,103.218z"/>
	<path fill="#6E8703" d="M674.104,84.782c-2.188-1.395-4.222-2.936-6.204-4.572c-1.973-1.639-3.862-3.385-5.641-5.244
		c-3.547-3.716-6.697-7.9-8.892-12.643c-0.207-0.449-0.012-0.982,0.438-1.191c0.449-0.207,0.981-0.012,1.189,0.438
		c0.001,0.005,0.005,0.009,0.008,0.014l0.002,0.006c1.983,4.548,4.938,8.674,8.321,12.376c1.697,1.851,3.512,3.602,5.414,5.252
		c1.901,1.644,3.896,3.219,5.97,4.604l0.014,0.009c0.261,0.175,0.331,0.527,0.156,0.788
		C674.71,84.876,674.364,84.948,674.104,84.782z"/>
</g>
<g opacity="0.5">
	<g>
		<g>
			
				<linearGradient id="SVGID_45_" gradientUnits="userSpaceOnUse" x1="784.9631" y1="484.7246" x2="812.3464" y2="474.9883" gradientTransform="matrix(0.6563 0.7545 0.7545 -0.6563 -327.2823 244.9319)">
				<stop  offset="0.0061" style="stop-color:#7FA401"/>
				<stop  offset="1" style="stop-color:#B6DF00"/>
			</linearGradient>
			<path fill="url(#SVGID_45_)" d="M511.042,539.661c0,0,11.475-4.736,23.375,9.5c12.362,14.787,14.045,6.871,11.209,4.229
				c0,0,10.895,6.652,11.539,1.521c0,0,7.688,1.11,8.805-2.549c1.117-3.662-1.49-5.427-1.49-5.427s2.627-4.705-6.617-8.225
				c0,0,13.07,6.375,15.015,1.189c0,0,9.504-0.201,10.262-4.894c0.758-4.693-6.717-6.795-6.717-6.795s6.449,0.307,5.981-3.32
				c0,0,5.73-1.758,3.566-5.791c0,0,6.229-2.729,3.699-5.637c0,0,6.026-6.051,7.319-8.069c1.289-2.02,2.666-2.318-2.604-2.529
				c-4.826-0.192-7.463-0.543-11.576,1.063c0,0-5.422-4.02-10.484-0.155c0,0-6.569-7.502-17.034,3.751c0,0,3.168-9.028-1.47-11.269
				c-3.319-1.604-7.475,2.739-7.475,2.739s-4.051-3.11-8.771,4.134c0,0-6.56-2.182-10.158,10.986
				c-3.603,13.168-8.297,20.75-16.638,24.864L511.042,539.661z"/>
			
				<linearGradient id="SVGID_46_" gradientUnits="userSpaceOnUse" x1="765.1438" y1="493.085" x2="789.3489" y2="482.9431" gradientTransform="matrix(0.6563 0.7545 0.7545 -0.6563 -327.2823 244.9319)">
				<stop  offset="0.0061" style="stop-color:#7FA401"/>
				<stop  offset="1" style="stop-color:#B6DF00"/>
			</linearGradient>
			<path fill="url(#SVGID_46_)" d="M597.915,503.253c-0.433-0.206-1.474-0.303-3.531-0.385c-4.826-0.192-7.463-0.543-11.576,1.063
				c0,0-5.422-4.02-10.484-0.155c0,0-6.569-7.502-17.034,3.751c0,0,3.168-9.028-1.47-11.269c-3.319-1.604-7.475,2.739-7.475,2.739
				s-4.051-3.11-8.771,4.134c0,0-6.56-2.182-10.158,10.986c-3.603,13.168-8.297,20.75-16.638,24.864
				C552.742,529.12,594.1,505.468,597.915,503.253z"/>
			<path fill="#6E8703" d="M598.202,503.087c-6.828,3.972-13.83,7.645-20.904,11.161c-7.082,3.505-14.262,6.818-21.537,9.909
				c-7.273,3.09-14.648,5.955-22.127,8.526c-7.479,2.57-14.924,5.058-22.621,6.902l-0.289-0.758
				c7.685-1.773,15.23-4.222,22.715-6.722c7.484-2.502,14.873-5.303,22.166-8.325c7.293-3.023,14.496-6.273,21.604-9.718
				C584.309,510.612,591.341,507,598.202,503.087z"/>
		</g>
		<g>
			<path fill="#6E8703" d="M491.987,544.356c-0.047-0.053-0.082-0.116-0.102-0.19c-0.066-0.252,0.086-0.512,0.34-0.578l20.705-5.424
				c0.254-0.068,0.514,0.084,0.58,0.338c0.064,0.254-0.086,0.514-0.34,0.58l-20.705,5.424
				C492.286,544.552,492.102,544.489,491.987,544.356z"/>
		</g>
	</g>
	<g>
		<g>
			
				<linearGradient id="SVGID_47_" gradientUnits="userSpaceOnUse" x1="964.2336" y1="495.2051" x2="969.5845" y2="503.6595" gradientTransform="matrix(0.3687 0.9295 0.9295 -0.3687 -323.1833 -193.5671)">
				<stop  offset="0.0061" style="stop-color:#7FA401"/>
				<stop  offset="1" style="stop-color:#B6DF00"/>
			</linearGradient>
			<path fill="url(#SVGID_47_)" d="M501.429,539.054c0,0,17.037-2.615,11.111-21.906c0,0-1.513,0.254-2.193,2.021
				c0,0,1.162-3.453-0.375-7.332c0,0-0.875,0.116-1.455,1.268c0,0,0.408-3.614-1.131-7.495c0,0-4.559,2.729-6.918,7.811
				c0,0,0.182-0.993-0.394-1.57c0,0-6.448,3.479-3.981,9.982c0,0-1.189-1.254-2.203-1.197
				C493.889,520.632,488.093,532.718,501.429,539.054z"/>
			
				<linearGradient id="SVGID_48_" gradientUnits="userSpaceOnUse" x1="969.4768" y1="503.541" x2="975.2557" y2="512.4233" gradientTransform="matrix(0.3687 0.9295 0.9295 -0.3687 -323.1833 -193.5671)">
				<stop  offset="0.0061" style="stop-color:#7FA401"/>
				<stop  offset="1" style="stop-color:#B6DF00"/>
			</linearGradient>
			<path fill="url(#SVGID_48_)" d="M512.54,517.147c0,0-1.513,0.255-2.193,2.021c0,0,1.162-3.453-0.375-7.332
				c0,0-0.875,0.116-1.455,1.268c0,0,0.408-3.614-1.131-7.495c-7.646,17.387-5.957,33.446-5.957,33.446
				S518.466,536.438,512.54,517.147z"/>
			<path fill="#6E8703" d="M501.286,538.968c-0.103-0.039-0.185-0.078-0.302-0.129c-0.014-0.006-0.002-0.027-0.002-0.043
				c-0.178-2.795-0.09-5.562,0.113-8.326c0.219-2.863,0.602-5.709,1.139-8.523c1.076-5.629,2.783-11.135,5.15-16.339
				c-2.236,5.263-3.799,10.792-4.729,16.413c-0.465,2.813-0.772,5.648-0.92,8.49c-0.139,2.818-0.149,5.668,0.113,8.451
				c0,0.016-0.19,0.027-0.188,0.045l-0.228,0.045L501.286,538.968z"/>
		</g>
		<g>
			<path fill="#6E8703" d="M501.862,541.747c-0.858-0.988-0.877-2.853-0.875-3.094c0.002-0.211,0.187-0.664,0.396-0.662
				c0.211,0,0.455,0.721,0.453,0.932c-0.004,0.578,0.203,1.805,0.6,2.324c0.129,0.168,0.121,0.397-0.037,0.537
				C502.24,541.923,501.999,541.905,501.862,541.747z"/>
		</g>
	</g>
	<g>
		<g>
			
				<linearGradient id="SVGID_49_" gradientUnits="userSpaceOnUse" x1="455.8264" y1="538.7266" x2="461.1774" y2="547.181" gradientTransform="matrix(0.0105 -0.9999 0.9999 0.0105 -42.681 1015.0074)">
				<stop  offset="0.0061" style="stop-color:#7FA401"/>
				<stop  offset="1" style="stop-color:#B6DF00"/>
			</linearGradient>
			<path fill="url(#SVGID_49_)" d="M502.179,544.046c0,0,16.84-3.674,18.232,16.461c0,0-1.503,0.305-2.771-1.1
				c0,0,2.324,2.807,2.281,6.979c0,0-0.857,0.205-1.813-0.662c0,0,1.679,3.229,1.636,7.402c0,0-5.234-0.912-9.261-4.808
				c0,0,0.525,0.861,0.197,1.607c0,0-7.268-0.934-7.303-7.891c0,0-0.658,1.6-1.625,1.91
				C501.753,563.948,492.005,554.749,502.179,544.046z"/>
			
				<linearGradient id="SVGID_50_" gradientUnits="userSpaceOnUse" x1="461.0706" y1="547.0615" x2="466.8495" y2="555.9442" gradientTransform="matrix(0.0105 -0.9999 0.9999 0.0105 -42.681 1015.0074)">
				<stop  offset="0.0061" style="stop-color:#7FA401"/>
				<stop  offset="1" style="stop-color:#B6DF00"/>
			</linearGradient>
			<path fill="url(#SVGID_50_)" d="M520.411,560.507c0,0-1.503,0.305-2.771-1.1c0,0,2.324,2.807,2.281,6.979
				c0,0-0.857,0.205-1.813-0.662c0,0,1.679,3.229,1.636,7.402c-13.38-13.484-17.564-29.082-17.564-29.082
				S519.018,540.372,520.411,560.507z"/>
			<path fill="#6E8703" d="M502.074,544.179c-0.079,0.072-0.143,0.139-0.231,0.229c-0.012,0.01,0.008,0.024,0.012,0.039
				c0.838,2.674,1.912,5.225,3.095,7.731c1.231,2.594,2.61,5.113,4.122,7.547c3.025,4.867,6.597,9.394,10.673,13.402
				c-3.978-4.109-7.418-8.711-10.306-13.623c-1.442-2.459-2.75-4.994-3.905-7.594c-1.142-2.582-2.175-5.238-2.929-7.931
				c-0.006-0.016-0.188,0.043-0.192,0.027l-0.229,0.037L502.074,544.179z"/>
		</g>
		<path fill="#6E8703" d="M501.817,541.366c-0.53,1.194,0,2.983,0.072,3.215c0.064,0.199,0.373,0.58,0.572,0.518
			c0.201-0.063,0.223-0.824,0.16-1.022c-0.175-0.554-0.338-1.787-0.111-2.4c0.074-0.197,0-0.416-0.191-0.502
			C502.128,541.089,501.903,541.175,501.817,541.366z"/>
	</g>
</g>
<g opacity="0.5">
	
		<linearGradient id="SVGID_51_" gradientUnits="userSpaceOnUse" x1="295.3323" y1="685.5977" x2="275.2268" y2="700.5146" gradientTransform="matrix(0.7254 0.6884 0.6884 -0.7254 -120.0367 544.4107)">
		<stop  offset="0.0061" style="stop-color:#7FA401"/>
		<stop  offset="1" style="stop-color:#B6DF00"/>
	</linearGradient>
	<path fill="url(#SVGID_51_)" d="M519.324,238.609c0,0,12.996-3.016,16.621,1.171c0,0,1.193,1.728,1.666-0.656
		c0.473-2.382,2.68,0.16,5.979,3.591c3.303,3.431,9.628,5.559,9.076,2.056c-0.551-3.502,1.804-1.27,3.136-0.005
		c1.332,1.265,7.483,5.463,11.952,3.894c0,0,0.336-1.768-0.387-3.049c-0.721-1.281,0.251-2.147,2.739-0.53
		c2.489,1.617,6.718,2.5,8.222,1.543c0,0,0.493-1.619-0.061-2.292c-0.553-0.675-0.373-2.589,2.188-1.204
		c2.56,1.386,4.687,0.871,6.488-0.399c0,0-0.041-1.527-0.59-2.048s0.873-1.706,3.879-0.79c0,0,2.078,0.48,3.326-1.463
		c0,0-0.577-1.592-1.576-1.795c-1-0.202,0.043-1.301,2.871-1.298c0,0,1.912,0.027,2.719-1.295c0,0-0.813-1.813-1.67-2.479
		c-0.858-0.665,1.343-1.259,3.086-1.839c1.744-0.581,1.716-1.65,1.716-1.65s-1.095-0.889-2.253-1.395c0,0,2.598-0.067,4.25-1.182
		c0,0-0.49-1.21-2.046-2.24c0,0,2.507-0.601,3.846-2.012c0,0-1.406-1.186-2.258-1.546c0,0,1.675-0.351,2.419-1.134
		c0,0-0.563-0.979-1.949-1.402c0,0,3.554-1.545,4.488-3.787c0,0-3.314-1.061-6.034,0.234c0,0,1.5-1.11,1.309-2.634
		c0,0-1.904,0.279-3.396,1.694c0,0,1.868-1.654,1.299-2.939c0,0-2.052,0.436-3.635,1.318c0,0-2.029,1.353-1.156-0.352
		s1.197-2.439,0.728-2.886c-0.47-0.446-3.564,2.577-4.34,2.14c-0.775-0.439,2.512-3.354,1-4.117c-0.365-0.186-3.629,2.963-4.4,2.676
		c-0.773-0.285,0.837-4.493-0.822-5.101c-0.592-0.217-3.355,3.223-4.368,2.561c-1.011-0.661,1.026-4.822-1.016-5.211
		c-0.884-0.167-2.907,4.32-4.993,3.533c-2.083-0.787,0.158-4.247-2.186-4.684c-0.594-0.109-3.038,2.26-6.496,5.981
		c0,0-0.602-2.508-2.021-4.152c0,0-2.215,0.134-5.146,4.951c-2.933,4.817-3.771,4.916-3.834,2.471
		c-0.064-2.445-0.877-4.259-3.387-0.829c-2.511,3.43-3.555,7.356-4.295,5.312c-0.742-2.045-1.355-5.011-5.333,0.751
		c-3.979,5.763-5.157,13.285-7.573,8.608c0,0-3.95,6.832-13.246,10.975C514.564,237.816,515.363,239.171,519.324,238.609z"/>
	
		<linearGradient id="SVGID_52_" gradientUnits="userSpaceOnUse" x1="279.7336" y1="696.6348" x2="259.1415" y2="715.6055" gradientTransform="matrix(0.7254 0.6884 0.6884 -0.7254 -120.0367 544.4107)">
		<stop  offset="0.0061" style="stop-color:#7FA401"/>
		<stop  offset="1" style="stop-color:#B6DF00"/>
	</linearGradient>
	<path fill="url(#SVGID_52_)" d="M601.169,213.607c0,0,1.5-1.11,1.309-2.634c0,0-1.904,0.279-3.396,1.694
		c0,0,1.868-1.654,1.299-2.939c0,0-2.052,0.436-3.635,1.318c0,0-2.028,1.353-1.156-0.352c0.873-1.705,1.197-2.439,0.728-2.886
		c-0.47-0.446-3.564,2.577-4.34,2.14c-0.775-0.439,2.512-3.354,1-4.117c-0.365-0.186-3.629,2.963-4.4,2.676
		c-0.772-0.285,0.837-4.493-0.822-5.101c-0.592-0.217-3.355,3.223-4.367,2.561c-1.012-0.661,1.025-4.822-1.017-5.211
		c-0.884-0.167-2.907,4.32-4.993,3.533c-2.083-0.787,0.158-4.247-2.186-4.684c-0.594-0.109-3.038,2.26-6.496,5.981
		c0,0-0.601-2.508-2.02-4.152c0,0-2.216,0.134-5.146,4.951c-2.933,4.817-3.771,4.916-3.834,2.471
		c-0.063-2.445-0.877-4.259-3.387-0.829c-2.511,3.43-3.555,7.356-4.295,5.312c-0.742-2.045-1.355-5.011-5.333,0.751
		c-3.979,5.763-5.157,13.285-7.573,8.608c0,0-3.95,6.832-13.246,10.975c-4.102,1.827-6.236,3.111-7.002,3.93
		c48.483-5.398,90.346-24.23,90.346-24.23S603.889,212.312,601.169,213.607z"/>
	<path fill="#6E8703" d="M607.203,213.373c-3.571,1.592-7.201,3.054-10.848,4.468c-3.649,1.411-7.323,2.755-11.019,4.04
		c-7.39,2.569-14.862,4.905-22.405,6.995c-15.084,4.172-30.845,7.669-46.414,9.492l0.771-1.168
		c15.529-1.654,30.41-4.783,45.517-8.793c7.553-2.01,15.043-4.266,22.454-6.756c3.704-1.247,7.392-2.553,11.054-3.924
		C599.972,216.351,603.615,214.927,607.203,213.373z"/>
	<g>
		<path fill="#6E8703" d="M494.035,237.857c-0.129-0.123-0.186-0.312-0.133-0.493c0.077-0.257,0.349-0.404,0.605-0.327
			c10.385,3.089,23.368,0.203,23.499,0.174c0.263-0.06,0.521,0.105,0.581,0.367c0.061,0.262-0.104,0.521-0.365,0.582
			c-0.134,0.03-13.358,2.973-23.992-0.19C494.155,237.947,494.088,237.908,494.035,237.857z"/>
	</g>
</g>
<g opacity="0.5">
	<g>
		
			<linearGradient id="SVGID_53_" gradientUnits="userSpaceOnUse" x1="422.1458" y1="897.5264" x2="429.7372" y2="897.3682" gradientTransform="matrix(-0.0638 0.998 0.998 0.0638 -712.765 57.6134)">
			<stop  offset="0.0061" style="stop-color:#7FA401"/>
			<stop  offset="1" style="stop-color:#B6DF00"/>
		</linearGradient>
		<path fill="url(#SVGID_53_)" d="M129.8,533.3c0,0,12.729,6.632,23.516,9.854c9.562,2.857,11.568-0.907,11.568-0.907
			s2.705,1.641,6.811-1.148c0,0,2.41,0.621,5.125-1.383c0,0,3.584,0.148,5.5-1.306c0,0-1.414-2.385-5.666-3.061
			c0,0-1.237-2.229-4.35-2.34c0,0-0.986-3.58-6.193-2.962c0,0-0.045-2.938-9.09-2.252C147.978,528.483,129.8,533.3,129.8,533.3z"/>
		
			<linearGradient id="SVGID_54_" gradientUnits="userSpaceOnUse" x1="413.1409" y1="897.6055" x2="422.4713" y2="897.5264" gradientTransform="matrix(-0.0638 0.998 0.998 0.0638 -712.765 57.6134)">
			<stop  offset="0.0061" style="stop-color:#7FA401"/>
			<stop  offset="1" style="stop-color:#B6DF00"/>
		</linearGradient>
		<path fill="url(#SVGID_54_)" d="M176.654,535.351c0,0-1.237-2.229-4.35-2.34c0,0-0.986-3.58-6.193-2.962
			c0,0-0.045-2.938-9.09-2.252c-9.043,0.687-27.221,5.503-27.221,5.503c13.75,2.533,52.52,5.11,52.52,5.11
			S180.906,536.026,176.654,535.351z"/>
		<path fill="#6E8703" d="M182.32,538.411c-8.78-0.547-17.557-1.172-26.326-1.897c-4.383-0.366-8.766-0.758-13.145-1.211
			c-4.377-0.463-8.753-0.938-13.105-1.691c-0.173-0.029-0.286-0.193-0.258-0.365c0.029-0.172,0.192-0.287,0.365-0.258
			c0,0,0.001,0,0.002,0l0.004,0.002c4.311,0.797,8.68,1.326,13.044,1.842c4.368,0.504,8.743,0.947,13.122,1.367
			C164.779,537.028,173.547,537.759,182.32,538.411z"/>
	</g>
	<g>
		
			<linearGradient id="SVGID_55_" gradientUnits="userSpaceOnUse" x1="400.6086" y1="870.4727" x2="401.1886" y2="876.1664" gradientTransform="matrix(-0.0638 0.998 0.998 0.0638 -712.765 57.6134)">
			<stop  offset="0.0061" style="stop-color:#7FA401"/>
			<stop  offset="1" style="stop-color:#B6DF00"/>
		</linearGradient>
		<path fill="url(#SVGID_55_)" d="M129.459,532.898c0,0,4.602-9.828,6.688-18.08c1.853-7.313-1.057-8.71-1.057-8.71
			s1.151-2.097-1.088-5.108c0,0,0.393-1.839-1.209-3.826c0,0-0.002-2.714-1.161-4.112c0,0-1.757,1.146-2.13,4.378
			c0,0-1.646,1.007-1.629,3.362c0,0-2.673,0.859-2.038,4.773c0,0-2.219,0.127-1.409,6.938
			C125.237,519.322,129.459,532.898,129.459,532.898z"/>
		
			<linearGradient id="SVGID_56_" gradientUnits="userSpaceOnUse" x1="400.928" y1="864.0889" x2="400.6116" y2="870.838" gradientTransform="matrix(-0.0638 0.998 0.998 0.0638 -712.765 57.6134)">
			<stop  offset="0.0061" style="stop-color:#7FA401"/>
			<stop  offset="1" style="stop-color:#B6DF00"/>
		</linearGradient>
		<path fill="url(#SVGID_56_)" d="M129.504,497.438c0,0-1.646,1.007-1.629,3.362c0,0-2.673,0.859-2.038,4.773
			c0,0-2.219,0.127-1.409,6.938c0.81,6.81,5.031,20.386,5.031,20.386c1.473-10.468,2.175-39.838,2.175-39.838
			S129.877,494.206,129.504,497.438z"/>
		<path fill="#6E8703" d="M131.633,493.061c-0.118,6.65-0.298,13.302-0.551,19.95c-0.13,3.322-0.278,6.647-0.474,9.971
			c-0.203,3.322-0.415,6.644-0.839,9.961c-0.021,0.174-0.18,0.296-0.354,0.273c-0.174-0.021-0.295-0.181-0.273-0.354
			c0-0.002,0-0.002,0-0.002l0.001-0.006c0.471-3.275,0.737-6.594,0.991-9.906c0.247-3.313,0.449-6.633,0.631-9.953
			C131.126,506.354,131.408,499.71,131.633,493.061z"/>
	</g>
	<g>
		
			<linearGradient id="SVGID_57_" gradientUnits="userSpaceOnUse" x1="409.0803" y1="863.6982" x2="407.6571" y2="867.0191" gradientTransform="matrix(-0.0638 0.998 0.998 0.0638 -712.765 57.6134)">
			<stop  offset="0.0061" style="stop-color:#7FA401"/>
			<stop  offset="1" style="stop-color:#B6DF00"/>
		</linearGradient>
		<path fill="url(#SVGID_57_)" d="M129.322,533.45c0,0-0.729-7.562-2.411-13.276c-1.488-5.066-3.738-4.873-3.738-4.873
			s-0.054-1.673-2.476-2.691c0,0-0.42-1.248-2.092-1.875c0,0-0.969-1.633-2.166-2.063c0,0-0.649,1.315,0.275,3.396
			c0,0-0.631,1.193,0.218,2.606c0,0-1.305,1.471,0.472,3.604c0,0-1.291,0.866,1.623,4.683
			C121.941,526.774,129.322,533.45,129.322,533.45z"/>
		
			<linearGradient id="SVGID_58_" gradientUnits="userSpaceOnUse" x1="411.343" y1="859.8965" x2="409.0758" y2="863.6401" gradientTransform="matrix(-0.0638 0.998 0.998 0.0638 -712.765 57.6134)">
			<stop  offset="0.0061" style="stop-color:#7FA401"/>
			<stop  offset="1" style="stop-color:#B6DF00"/>
		</linearGradient>
		<path fill="url(#SVGID_58_)" d="M116.714,512.065c0,0-0.631,1.193,0.218,2.606c0,0-1.305,1.471,0.472,3.604
			c0,0-1.291,0.866,1.623,4.682c2.914,3.816,10.295,10.492,10.295,10.492c-2.843-6.832-12.883-24.781-12.883-24.781
			S115.789,509.985,116.714,512.065z"/>
		<path fill="#6E8703" d="M116.439,508.67c2.313,4.043,4.588,8.105,6.816,12.194c1.114,2.047,2.216,4.101,3.289,6.168
			c0.918,1.779,1.83,3.56,2.663,5.389c0.005,0.011,0.011,0.021,0.015,0.03c0.024,0.063-0.007,0.441,0.094,0.745l-0.217,0.072
			c-0.121-0.16-0.235-0.254-0.342-0.353c-0.008-0.006-0.009-0.02-0.013-0.026c-0.807-1.904-1.714-3.777-2.622-5.646
			c-1.025-2.088-2.079-4.163-3.146-6.23C120.841,516.876,118.657,512.763,116.439,508.67z"/>
	</g>
	<g>
		
			<linearGradient id="SVGID_59_" gradientUnits="userSpaceOnUse" x1="407.7356" y1="893.7861" x2="413.5347" y2="898.7944" gradientTransform="matrix(-0.0638 0.998 0.998 0.0638 -712.765 57.6134)">
			<stop  offset="0.0061" style="stop-color:#7FA401"/>
			<stop  offset="1" style="stop-color:#B6DF00"/>
		</linearGradient>
		<path fill="url(#SVGID_59_)" d="M129.475,533.345c0,0,14.274-1.498,25.048-4.765c9.549-2.896,9.146-7.143,9.146-7.143
			s3.16-0.127,5.043-4.719c0,0,2.352-0.813,3.512-3.982c0,0,3.07-1.854,3.865-4.122c0,0-2.496-1.208-6.414,0.573
			c0,0-2.262-1.175-4.92,0.451c0,0-2.799-2.44-6.799,0.949c0,0-1.66-2.425-8.822,3.14
			C141.972,519.295,129.475,533.345,129.475,533.345z"/>
		
			<linearGradient id="SVGID_60_" gradientUnits="userSpaceOnUse" x1="400.9485" y1="888.1445" x2="408.0133" y2="893.9968" gradientTransform="matrix(-0.0638 0.998 0.998 0.0638 -712.765 57.6134)">
			<stop  offset="0.0061" style="stop-color:#7FA401"/>
			<stop  offset="1" style="stop-color:#B6DF00"/>
		</linearGradient>
		<path fill="url(#SVGID_60_)" d="M169.675,509.188c0,0-2.262-1.175-4.92,0.451c0,0-2.799-2.44-6.799,0.948
			c0,0-1.66-2.424-8.822,3.141s-19.659,19.616-19.659,19.616c12.863-5.479,46.614-24.729,46.614-24.729
			S173.593,507.407,169.675,509.188z"/>
		<path fill="#6E8703" d="M176.089,508.615c-7.625,4.391-15.287,8.712-23,12.948c-3.857,2.115-7.729,4.207-11.629,6.246
			c-3.904,2.03-7.816,4.049-11.861,5.824l-0.248-0.58c4.033-1.714,7.97-3.687,11.893-5.665c3.921-1.991,7.814-4.036,11.695-6.104
			C160.698,517.144,168.414,512.913,176.089,508.615z"/>
	</g>
	<g>
		
			<linearGradient id="SVGID_61_" gradientUnits="userSpaceOnUse" x1="558.0032" y1="870.1582" x2="558.5831" y2="875.8518" gradientTransform="matrix(0.0638 -0.998 0.998 0.0638 -776.4876 1054.8792)">
			<stop  offset="0.0061" style="stop-color:#7FA401"/>
			<stop  offset="1" style="stop-color:#B6DF00"/>
		</linearGradient>
		<path fill="url(#SVGID_61_)" d="M129.096,533.608c0,0,3.313,10.335,4.334,18.785c0.906,7.488-2.156,8.504-2.156,8.504
			s0.876,2.227-1.729,4.928c0,0,0.154,1.877-1.687,3.645c0,0-0.348,2.688-1.674,3.931c0,0-1.598-1.359-1.558-4.612
			c0,0-1.502-1.209-1.188-3.544c0,0-2.541-1.19-1.415-4.994c0,0-2.183-0.407-0.514-7.061
			C123.181,546.537,129.096,533.608,129.096,533.608z"/>
		
			<linearGradient id="SVGID_62_" gradientUnits="userSpaceOnUse" x1="558.3186" y1="863.7754" x2="558.0023" y2="870.5246" gradientTransform="matrix(0.0638 -0.998 0.998 0.0638 -776.4876 1054.8792)">
			<stop  offset="0.0061" style="stop-color:#7FA401"/>
			<stop  offset="1" style="stop-color:#B6DF00"/>
		</linearGradient>
		<path fill="url(#SVGID_62_)" d="M124.628,568.787c0,0-1.502-1.209-1.188-3.544c0,0-2.541-1.19-1.415-4.994
			c0,0-2.183-0.407-0.514-7.061c1.669-6.651,7.584-19.58,7.584-19.58c0.128,10.572-2.911,39.791-2.911,39.791
			S124.588,572.04,124.628,568.787z"/>
		<path fill="#6E8703" d="M126.185,573.399c0.728-6.611,1.396-13.229,1.99-19.857c0.296-3.313,0.57-6.63,0.801-9.948
			c0.221-3.322,0.434-6.644,0.438-9.987c0.001-0.176-0.143-0.317-0.315-0.317c-0.175,0-0.316,0.144-0.318,0.316
			c0,0.002,0,0.002,0,0.003l0.001,0.005c0.05,3.31-0.107,6.634-0.276,9.951c-0.178,3.318-0.399,6.637-0.643,9.953
			C127.373,560.148,126.806,566.777,126.185,573.399z"/>
	</g>
	<g>
		
			<linearGradient id="SVGID_63_" gradientUnits="userSpaceOnUse" x1="566.1829" y1="863.3604" x2="564.7597" y2="866.6811" gradientTransform="matrix(0.0638 -0.998 0.998 0.0638 -776.4876 1054.8792)">
			<stop  offset="0.0061" style="stop-color:#7FA401"/>
			<stop  offset="1" style="stop-color:#B6DF00"/>
		</linearGradient>
		<path fill="url(#SVGID_63_)" d="M128.991,533.317c0,0-1.684,7.408-4.079,12.864c-2.122,4.837-4.328,4.355-4.328,4.355
			s-0.267,1.654-2.799,2.354c0,0-0.573,1.186-2.313,1.597c0,0-1.168,1.495-2.41,1.771c0,0-0.477-1.391,0.705-3.335
			c0,0-0.475-1.265,0.547-2.558c0,0-1.104-1.625,0.928-3.514c0,0-1.17-1.025,2.206-4.439
			C120.822,539.001,128.991,533.317,128.991,533.317z"/>
		
			<linearGradient id="SVGID_64_" gradientUnits="userSpaceOnUse" x1="568.4436" y1="859.5547" x2="566.1768" y2="863.2975" gradientTransform="matrix(0.0638 -0.998 0.998 0.0638 -776.4876 1054.8792)">
			<stop  offset="0.0061" style="stop-color:#7FA401"/>
			<stop  offset="1" style="stop-color:#B6DF00"/>
		</linearGradient>
		<path fill="url(#SVGID_64_)" d="M113.767,552.925c0,0-0.475-1.265,0.547-2.558c0,0-1.104-1.625,0.928-3.514
			c0,0-1.17-1.025,2.206-4.439c3.374-3.414,11.544-9.098,11.544-9.098c-3.688,6.416-15.93,22.942-15.93,22.942
			S112.586,554.87,113.767,552.925z"/>
		<path fill="#6E8703" d="M113.062,556.26c2.807-3.719,5.581-7.456,8.314-11.231c1.362-1.887,2.718-3.781,4.047-5.697
			c1.138-1.649,2.271-3.303,3.332-5.015c0.173-0.278,0.063-0.688,0.231-0.97l-0.012-0.009c-0.112,0.197-0.482,0.217-0.596,0.412
			c-1.052,1.804-2.2,3.563-3.352,5.314c-1.281,1.941-2.592,3.865-3.913,5.781C118.474,548.679,115.784,552.479,113.062,556.26z"/>
	</g>
	<g>
		
			<linearGradient id="SVGID_65_" gradientUnits="userSpaceOnUse" x1="565.1389" y1="893.4512" x2="570.9376" y2="898.4592" gradientTransform="matrix(0.0638 -0.998 0.998 0.0638 -776.4876 1054.8792)">
			<stop  offset="0.0061" style="stop-color:#7FA401"/>
			<stop  offset="1" style="stop-color:#B6DF00"/>
		</linearGradient>
		<path fill="url(#SVGID_65_)" d="M129.17,533.17c0,0,13.968,3.301,24.237,7.912c9.103,4.086,8.162,8.248,8.162,8.248
			s3.119,0.526,4.402,5.321c0,0,2.229,1.105,2.977,4.396c0,0,2.81,2.229,3.31,4.581c0,0-2.629,0.882-6.287-1.386
			c0,0-2.396,0.876-4.822-1.073c0,0-3.088,2.063-6.625-1.808c0,0-1.953,2.193-8.35-4.237
			C139.777,548.696,129.17,533.17,129.17,533.17z"/>
		
			<linearGradient id="SVGID_66_" gradientUnits="userSpaceOnUse" x1="558.3518" y1="887.8076" x2="565.4152" y2="893.6586" gradientTransform="matrix(0.0638 -0.998 0.998 0.0638 -776.4876 1054.8792)">
			<stop  offset="0.0061" style="stop-color:#7FA401"/>
			<stop  offset="1" style="stop-color:#B6DF00"/>
		</linearGradient>
		<path fill="url(#SVGID_66_)" d="M165.97,562.244c0,0-2.396,0.876-4.822-1.073c0,0-3.088,2.063-6.625-1.808
			c0,0-1.953,2.193-8.35-4.236c-6.396-6.431-17.004-21.957-17.004-21.957c12.063,7.068,43.088,30.461,43.088,30.461
			S169.629,564.511,165.97,562.244z"/>
		<path fill="#6E8703" d="M172.257,563.63c-7.004-5.326-14.056-10.589-21.166-15.771c-3.556-2.59-7.129-5.158-10.736-7.678
			c-3.616-2.51-7.24-5.009-11.024-7.286l-0.32,0.546c3.782,2.213,7.436,4.669,11.075,7.131c3.635,2.476,7.236,4.997,10.822,7.543
			C158.077,553.211,165.191,558.39,172.257,563.63z"/>
	</g>
	<g>
		
			<linearGradient id="SVGID_67_" gradientUnits="userSpaceOnUse" x1="401.2415" y1="883.416" x2="404.7737" y2="888.8987" gradientTransform="matrix(-0.0638 0.998 0.998 0.0638 -712.765 57.6134)">
			<stop  offset="0.0061" style="stop-color:#7FA401"/>
			<stop  offset="1" style="stop-color:#B6DF00"/>
		</linearGradient>
		<path fill="url(#SVGID_67_)" d="M129.192,533.655c0,0,10.908-7.028,18.27-14.061c6.524-6.23,4.467-9.492,4.467-9.492
			s2.498-1.394,2.146-5.865c0,0,1.566-1.613,1.209-4.646c0,0,1.722-2.747,1.438-4.903c0,0-2.508,0.043-4.941,3.08
			c0,0-2.305-0.025-3.785,2.37c0,0-3.254-0.828-5.1,3.54c0,0-2.328-1.28-5.838,6.131S129.192,533.655,129.192,533.655z"/>
		
			<linearGradient id="SVGID_68_" gradientUnits="userSpaceOnUse" x1="397.6628" y1="876.4063" x2="401.3002" y2="883.6281" gradientTransform="matrix(-0.0638 0.998 0.998 0.0638 -712.765 57.6134)">
			<stop  offset="0.0061" style="stop-color:#7FA401"/>
			<stop  offset="1" style="stop-color:#B6DF00"/>
		</linearGradient>
		<path fill="url(#SVGID_68_)" d="M151.779,497.769c0,0-2.305-0.025-3.785,2.37c0,0-3.254-0.828-5.1,3.54
			c0,0-2.328-1.28-5.838,6.131s-7.864,23.846-7.864,23.846c8.147-9.666,27.528-38.967,27.528-38.967
			S154.213,494.731,151.779,497.769z"/>
		<path fill="#6E8703" d="M156.72,494.688c-4.357,6.656-8.773,13.271-13.266,19.838c-2.248,3.281-4.518,6.55-6.828,9.788
			c-2.322,3.233-4.654,6.458-7.191,9.544c-0.111,0.135-0.311,0.154-0.445,0.044c-0.137-0.109-0.153-0.312-0.044-0.446
			c0.001,0,0.001,0,0.001-0.001l0.004-0.005c2.557-3.022,4.933-6.219,7.291-9.414c2.354-3.202,4.663-6.438,6.953-9.688
			C147.773,507.843,152.275,501.285,156.72,494.688z"/>
	</g>
	<g>
		
			<linearGradient id="SVGID_69_" gradientUnits="userSpaceOnUse" x1="558.6448" y1="883.0879" x2="562.1766" y2="888.5699" gradientTransform="matrix(0.0638 -0.998 0.998 0.0638 -776.4876 1054.8792)">
			<stop  offset="0.0061" style="stop-color:#7FA401"/>
			<stop  offset="1" style="stop-color:#B6DF00"/>
		</linearGradient>
		<path fill="url(#SVGID_69_)" d="M128.927,532.825c0,0,9.926,8.359,16.332,16.271c5.678,7.01,3.223,9.982,3.223,9.982
			s2.301,1.697,1.381,6.091c0,0,1.351,1.802,0.609,4.762c0,0,1.357,2.945,0.803,5.046c0,0-2.481-0.362-4.51-3.683
			c0,0-2.289-0.269-3.453-2.834c0,0-3.333,0.405-4.607-4.158c0,0-2.472,0.973-5.01-6.825
			C131.156,549.68,128.927,532.825,128.927,532.825z"/>
		
			<linearGradient id="SVGID_70_" gradientUnits="userSpaceOnUse" x1="555.0657" y1="876.082" x2="558.7031" y2="883.3043" gradientTransform="matrix(0.0638 -0.998 0.998 0.0638 -776.4876 1054.8792)">
			<stop  offset="0.0061" style="stop-color:#7FA401"/>
			<stop  offset="1" style="stop-color:#B6DF00"/>
		</linearGradient>
		<path fill="url(#SVGID_70_)" d="M146.765,571.295c0,0-2.289-0.269-3.453-2.834c0,0-3.333,0.405-4.607-4.158
			c0,0-2.472,0.973-5.01-6.825c-2.539-7.797-4.768-24.651-4.768-24.651c6.852,10.624,22.348,42.151,22.348,42.151
			S148.793,574.614,146.765,571.295z"/>
		<path fill="#6E8703" d="M151.275,574.977c-3.477-7.155-7.015-14.279-10.635-21.364c-1.811-3.541-3.646-7.071-5.527-10.578
			c-1.8-3.331-3.608-6.658-5.61-9.889c-0.103-0.164-0.438-0.139-0.54-0.301c-0.021-0.033-0.028-0.011,0.001-0.009
			c0.006,0.002-0.008,0.008-0.015,0.008c-0.002,0-0.016,0.003-0.014,0.005v-0.006c0.098,0.147-0.079,0.454,0.019,0.604
			c2.035,3.188,3.896,6.502,5.743,9.814c1.927,3.479,3.807,6.981,5.664,10.496C144.072,560.792,147.705,567.87,151.275,574.977z"/>
	</g>
	<path fill="#6E8703" d="M129.959,534.016c-1.808-0.29-3.6-0.611-5.393-0.953c-1.792-0.343-3.579-0.708-5.364-1.111
		c-1.782-0.402-3.563-0.839-5.336-1.353c-0.887-0.259-1.77-0.537-2.651-0.858c-0.883-0.33-1.763-0.676-2.652-1.21
		c-0.471-0.281-0.624-0.891-0.342-1.361c0.281-0.471,0.891-0.622,1.362-0.342c0.01,0.006,0.019,0.011,0.026,0.019l0.014,0.008
		c0.655,0.426,1.463,0.789,2.271,1.117c0.815,0.328,1.656,0.625,2.507,0.901c1.701,0.558,3.439,1.043,5.188,1.5
		c1.748,0.455,3.509,0.876,5.273,1.275c1.767,0.397,3.543,0.775,5.314,1.123h0.004c0.344,0.065,0.566,0.398,0.5,0.742
		C130.613,533.849,130.293,534.069,129.959,534.016z"/>
</g>
<g opacity="0.5">
	
		<linearGradient id="SVGID_71_" gradientUnits="userSpaceOnUse" x1="442.2405" y1="-541.6016" x2="455.4008" y2="-520.8082" gradientTransform="matrix(0.6852 -0.7283 -0.7283 -0.6852 51.7988 516.5)">
		<stop  offset="0.0061" style="stop-color:#7FA401"/>
		<stop  offset="1" style="stop-color:#B6DF00"/>
	</linearGradient>
	<path fill="url(#SVGID_71_)" d="M782.314,526.259c0,0-23.604-35.216-60.386-1.882c0,0,2.142,3.101,6.787,2.773
		c0,0-8.907,1.016-15.94,8.491c0,0,1.174,1.826,4.342,1.916c0,0-8.479,2.865-15.512,10.343c0,0,10.835,7.304,24.613,7.256
		c0,0-2.402,0.631-3.088,2.514c0,0,14.479,10.729,26.392-1.549c0,0-1.556,3.958-0.37,6.156
		C749.152,562.277,782.118,562.574,782.314,526.259z"/>
	
		<linearGradient id="SVGID_72_" gradientUnits="userSpaceOnUse" x1="455.1399" y1="-521.1025" x2="469.3526" y2="-499.2571" gradientTransform="matrix(0.6852 -0.7283 -0.7283 -0.6852 51.7988 516.5)">
		<stop  offset="0.0061" style="stop-color:#7FA401"/>
		<stop  offset="1" style="stop-color:#B6DF00"/>
	</linearGradient>
	<path fill="url(#SVGID_72_)" d="M721.929,524.377c0,0,2.142,3.101,6.787,2.773c0,0-8.907,1.016-15.94,8.491
		c0,0,1.174,1.826,4.342,1.916c0,0-8.479,2.865-15.512,10.343c46.703-1.116,80.709-21.643,80.709-21.643
		S758.709,491.043,721.929,524.377z"/>
	<path fill="#6E8703" d="M782.271,526.668c0.021,0.269,0.015,0.488,0.025,0.805c0.001,0.033-0.061,0.031-0.091,0.052
		c-6.043,3.311-12.293,6.002-18.666,8.438c-6.604,2.497-13.342,4.616-20.174,6.355c-13.658,3.477-27.702,5.422-41.762,5.584
		c14.051-0.513,27.998-2.806,41.49-6.603c6.748-1.896,13.384-4.17,19.867-6.808c6.423-2.636,12.782-5.585,18.705-9.073
		c0.034-0.021,0.262,0.396,0.297,0.375l0.34,0.455L782.271,526.668z"/>
	<g>
		<path fill="#6E8703" d="M791.534,519.715c-3.041,3.233-6.991,6.642-11.842,9.254c-0.512,0.276-1.149,0.085-1.427-0.428
			c-0.274-0.51-0.086-1.147,0.429-1.426c12.016-6.474,18.478-18.457,18.539-18.579c0.277-0.521,0.912-0.71,1.424-0.438
			c0.515,0.271,0.709,0.908,0.438,1.424C798.929,509.838,796.391,514.555,791.534,519.715z"/>
	</g>
</g>
</svg>
